<svg width="39" height="39" viewBox="0 0 39 39" fill="none" xmlns="http://www.w3.org/2000/svg">
<path d="M34.4502 10.4H18.8502C18.4914 10.4 18.2002 10.6912 18.2002 11.05C18.2002 11.4088 18.4914 11.7 18.8502 11.7H34.4502C34.809 11.7 35.1002 11.4088 35.1002 11.05C35.1002 10.6912 34.809 10.4 34.4502 10.4Z" fill="url(#paint0_linear)"/>
<path d="M27.3002 33.8H18.8502C18.4914 33.8 18.2002 34.0912 18.2002 34.45C18.2002 34.8088 18.4914 35.1 18.8502 35.1H27.3002C27.659 35.1 27.9502 34.8088 27.9502 34.45C27.9502 34.0912 27.659 33.8 27.3002 33.8Z" fill="url(#paint1_linear)"/>
<path d="M34.4501 18.2H29.2501C28.8913 18.2 28.6001 18.4912 28.6001 18.8499C28.6001 19.2087 28.8913 19.4999 29.2501 19.4999H34.4501C34.8089 19.4999 35.1001 19.2087 35.1001 18.8499C35.1001 18.4912 34.8089 18.2 34.4501 18.2Z" fill="url(#paint2_linear)"/>
<path d="M18.8502 19.4999H26.6502C27.009 19.4999 27.3002 19.2087 27.3002 18.8499C27.3002 18.4912 27.009 18.2 26.6502 18.2H18.8502C18.4914 18.2 18.2002 18.4912 18.2002 18.8499C18.2002 19.2087 18.4914 19.4999 18.8502 19.4999Z" fill="url(#paint3_linear)"/>
<path d="M18.8502 23.4H24.0502C24.409 23.4 24.7002 23.1088 24.7002 22.75C24.7002 22.3912 24.409 22.1 24.0502 22.1H18.8502C18.4914 22.1 18.2002 22.3912 18.2002 22.75C18.2002 23.1088 18.4914 23.4 18.8502 23.4Z" fill="url(#paint4_linear)"/>
<path d="M34.45 22.1H26.65C26.2912 22.1 26 22.3912 26 22.75C26 23.1088 26.2912 23.4 26.65 23.4H34.45C34.8088 23.4 35.1 23.1088 35.1 22.75C35.1 22.3912 34.8088 22.1 34.45 22.1Z" fill="url(#paint5_linear)"/>
<path d="M28.6002 29.9H18.8502C18.4914 29.9 18.2002 30.1912 18.2002 30.55C18.2002 30.9088 18.4914 31.2 18.8502 31.2H28.6002C28.959 31.2 29.2502 30.9088 29.2502 30.55C29.2502 30.1912 28.959 29.9 28.6002 29.9Z" fill="url(#paint6_linear)"/>
<path d="M18.8502 15.6H24.0502C24.409 15.6 24.7002 15.3088 24.7002 14.95C24.7002 14.5912 24.409 14.3 24.0502 14.3H18.8502C18.4914 14.3 18.2002 14.5912 18.2002 14.95C18.2002 15.3088 18.4914 15.6 18.8502 15.6Z" fill="url(#paint7_linear)"/>
<path d="M34.45 14.3H26.65C26.2912 14.3 26 14.5912 26 14.95C26 15.3088 26.2912 15.6 26.65 15.6H34.45C34.8088 15.6 35.1 15.3088 35.1 14.95C35.1 14.5912 34.8088 14.3 34.45 14.3Z" fill="url(#paint8_linear)"/>
<path d="M34.4501 26H29.2501C28.8913 26 28.6001 26.2912 28.6001 26.65C28.6001 27.0088 28.8913 27.3 29.2501 27.3H34.4501C34.8089 27.3 35.1001 27.0088 35.1001 26.65C35.1001 26.2912 34.8089 26 34.4501 26Z" fill="url(#paint9_linear)"/>
<path d="M18.8502 27.3H26.6502C27.009 27.3 27.3002 27.0088 27.3002 26.65C27.3002 26.2912 27.009 26 26.6502 26H18.8502C18.4914 26 18.2002 26.2912 18.2002 26.65C18.2002 27.0088 18.4914 27.3 18.8502 27.3Z" fill="url(#paint10_linear)"/>
<path d="M37.05 5.2H16.25C15.1749 5.2 14.3 6.0749 14.3 7.15V37.05C14.3 37.2788 14.3468 37.4959 14.4196 37.7H1.95C1.59185 37.7 1.3 37.4081 1.3 37.05V1.95C1.3 1.59185 1.59185 1.3 1.95 1.3H3.25V10.4C3.25 11.1169 3.83305 11.7 4.55 11.7H5.2C5.91695 11.7 6.5 11.1169 6.5 10.4V3.25C6.5 2.8912 6.2088 2.6 5.85 2.6C5.4912 2.6 5.2 2.8912 5.2 3.25V10.4H4.55V1.3H7.15V9.75C7.15 10.1088 7.4412 10.4 7.8 10.4C8.1588 10.4 8.45 10.1088 8.45 9.75V1.3H24.7C25.0581 1.3 25.35 1.59185 25.35 1.95V3.25C25.35 3.6088 25.6412 3.9 26 3.9C26.3588 3.9 26.65 3.6088 26.65 3.25V1.95C26.65 0.8749 25.7751 0 24.7 0H7.15H4.55H1.95C0.8749 0 0 0.8749 0 1.95V37.05C0 38.1251 0.8749 39 1.95 39H16.25H24.7H31.2C31.2851 39 31.369 38.9831 31.4476 38.9506C31.5263 38.9181 31.5984 38.8706 31.6595 38.8095L38.8095 31.6595C38.8654 31.6036 38.9051 31.538 38.9369 31.4691C38.946 31.4489 38.9519 31.4288 38.959 31.408C38.9772 31.3534 38.9883 31.2981 38.9915 31.2409C38.9928 31.2266 39 31.2143 39 31.2V7.15C39 6.0749 38.1251 5.2 37.05 5.2ZM31.85 36.7809V32.5C31.85 32.1418 32.1418 31.85 32.5 31.85H36.7809L31.85 36.7809ZM37.7 30.55H32.5C31.4249 30.55 30.55 31.4249 30.55 32.5V37.7H24.7H16.25C15.8918 37.7 15.6 37.4081 15.6 37.05V7.15C15.6 6.79185 15.8918 6.5 16.25 6.5H37.05C37.4081 6.5 37.7 6.79185 37.7 7.15V30.55Z" fill="url(#paint11_linear)"/>
<path d="M3.9 15.6H9.1C9.4588 15.6 9.75 15.3088 9.75 14.95C9.75 14.5912 9.4588 14.3 9.1 14.3H3.9C3.5412 14.3 3.25 14.5912 3.25 14.95C3.25 15.3088 3.5412 15.6 3.9 15.6Z" fill="url(#paint12_linear)"/>
<path d="M11.7 18.2H3.9C3.5412 18.2 3.25 18.4912 3.25 18.8499C3.25 19.2087 3.5412 19.4999 3.9 19.4999H11.7C12.0588 19.4999 12.35 19.2087 12.35 18.8499C12.35 18.4912 12.0588 18.2 11.7 18.2Z" fill="url(#paint13_linear)"/>
<path d="M3.9 23.4H9.1C9.4588 23.4 9.75 23.1088 9.75 22.75C9.75 22.3912 9.4588 22.1 9.1 22.1H3.9C3.5412 22.1 3.25 22.3912 3.25 22.75C3.25 23.1088 3.5412 23.4 3.9 23.4Z" fill="url(#paint14_linear)"/>
<path d="M11.7 26H3.9C3.5412 26 3.25 26.2912 3.25 26.65C3.25 27.0088 3.5412 27.3 3.9 27.3H11.7C12.0588 27.3 12.35 27.0088 12.35 26.65C12.35 26.2912 12.0588 26 11.7 26Z" fill="url(#paint15_linear)"/>
<path d="M3.9 31.2H9.1C9.4588 31.2 9.75 30.9088 9.75 30.55C9.75 30.1912 9.4588 29.9 9.1 29.9H3.9C3.5412 29.9 3.25 30.1912 3.25 30.55C3.25 30.9088 3.5412 31.2 3.9 31.2Z" fill="url(#paint16_linear)"/>
<path d="M3.9 35.1H11.7C12.0588 35.1 12.35 34.8088 12.35 34.45C12.35 34.0912 12.0588 33.8 11.7 33.8H3.9C3.5412 33.8 3.25 34.0912 3.25 34.45C3.25 34.8088 3.5412 35.1 3.9 35.1Z" fill="url(#paint17_linear)"/>
<defs>
<linearGradient id="paint0_linear" x1="26.6502" y1="10.4" x2="26.6502" y2="11.7" gradientUnits="userSpaceOnUse">
<stop stop-color="#7287C2"/>
<stop offset="1" stop-color="#0ABAED"/>
</linearGradient>
<linearGradient id="paint1_linear" x1="23.0752" y1="33.8" x2="23.0752" y2="35.1" gradientUnits="userSpaceOnUse">
<stop stop-color="#7287C2"/>
<stop offset="1" stop-color="#0ABAED"/>
</linearGradient>
<linearGradient id="paint2_linear" x1="31.8501" y1="18.2" x2="31.8501" y2="19.4999" gradientUnits="userSpaceOnUse">
<stop stop-color="#7287C2"/>
<stop offset="1" stop-color="#0ABAED"/>
</linearGradient>
<linearGradient id="paint3_linear" x1="22.7502" y1="18.2" x2="22.7502" y2="19.4999" gradientUnits="userSpaceOnUse">
<stop stop-color="#7287C2"/>
<stop offset="1" stop-color="#0ABAED"/>
</linearGradient>
<linearGradient id="paint4_linear" x1="21.4502" y1="22.1" x2="21.4502" y2="23.4" gradientUnits="userSpaceOnUse">
<stop stop-color="#7287C2"/>
<stop offset="1" stop-color="#0ABAED"/>
</linearGradient>
<linearGradient id="paint5_linear" x1="30.55" y1="22.1" x2="30.55" y2="23.4" gradientUnits="userSpaceOnUse">
<stop stop-color="#7287C2"/>
<stop offset="1" stop-color="#0ABAED"/>
</linearGradient>
<linearGradient id="paint6_linear" x1="23.7252" y1="29.9" x2="23.7252" y2="31.2" gradientUnits="userSpaceOnUse">
<stop stop-color="#7287C2"/>
<stop offset="1" stop-color="#0ABAED"/>
</linearGradient>
<linearGradient id="paint7_linear" x1="21.4502" y1="14.3" x2="21.4502" y2="15.6" gradientUnits="userSpaceOnUse">
<stop stop-color="#7287C2"/>
<stop offset="1" stop-color="#0ABAED"/>
</linearGradient>
<linearGradient id="paint8_linear" x1="30.55" y1="14.3" x2="30.55" y2="15.6" gradientUnits="userSpaceOnUse">
<stop stop-color="#7287C2"/>
<stop offset="1" stop-color="#0ABAED"/>
</linearGradient>
<linearGradient id="paint9_linear" x1="31.8501" y1="26" x2="31.8501" y2="27.3" gradientUnits="userSpaceOnUse">
<stop stop-color="#7287C2"/>
<stop offset="1" stop-color="#0ABAED"/>
</linearGradient>
<linearGradient id="paint10_linear" x1="22.7502" y1="26" x2="22.7502" y2="27.3" gradientUnits="userSpaceOnUse">
<stop stop-color="#7287C2"/>
<stop offset="1" stop-color="#0ABAED"/>
</linearGradient>
<linearGradient id="paint11_linear" x1="19.5" y1="0" x2="19.5" y2="39" gradientUnits="userSpaceOnUse">
<stop stop-color="#7287C2"/>
<stop offset="1" stop-color="#0ABAED"/>
</linearGradient>
<linearGradient id="paint12_linear" x1="6.5" y1="14.3" x2="6.5" y2="15.6" gradientUnits="userSpaceOnUse">
<stop stop-color="#7287C2"/>
<stop offset="1" stop-color="#0ABAED"/>
</linearGradient>
<linearGradient id="paint13_linear" x1="7.8" y1="18.2" x2="7.8" y2="19.4999" gradientUnits="userSpaceOnUse">
<stop stop-color="#7287C2"/>
<stop offset="1" stop-color="#0ABAED"/>
</linearGradient>
<linearGradient id="paint14_linear" x1="6.5" y1="22.1" x2="6.5" y2="23.4" gradientUnits="userSpaceOnUse">
<stop stop-color="#7287C2"/>
<stop offset="1" stop-color="#0ABAED"/>
</linearGradient>
<linearGradient id="paint15_linear" x1="7.8" y1="26" x2="7.8" y2="27.3" gradientUnits="userSpaceOnUse">
<stop stop-color="#7287C2"/>
<stop offset="1" stop-color="#0ABAED"/>
</linearGradient>
<linearGradient id="paint16_linear" x1="6.5" y1="29.9" x2="6.5" y2="31.2" gradientUnits="userSpaceOnUse">
<stop stop-color="#7287C2"/>
<stop offset="1" stop-color="#0ABAED"/>
</linearGradient>
<linearGradient id="paint17_linear" x1="7.8" y1="33.8" x2="7.8" y2="35.1" gradientUnits="userSpaceOnUse">
<stop stop-color="#7287C2"/>
<stop offset="1" stop-color="#0ABAED"/>
</linearGradient>
</defs>
</svg>
