<svg width="41" height="41" viewBox="0 0 41 41" fill="none" xmlns="http://www.w3.org/2000/svg">
<path d="M39.1156 35.9473H38.4324V18.1297C39.9752 17.137 41 15.4059 41 13.4389C41 13.3344 40.9727 13.2316 40.9209 13.1409L36.1552 4.80093C35.8205 4.21532 35.1935 3.85144 34.519 3.85144H6.48096C5.80646 3.85144 5.17953 4.21524 4.84481 4.80093L0.0791172 13.1409C0.0273066 13.2316 0 13.3345 0 13.4389C0 15.4059 1.02484 17.137 2.56762 18.1297V35.9473H1.8844C1.55271 35.9473 1.28381 36.2162 1.28381 36.5479C1.28381 36.8796 1.55271 37.1485 1.8844 37.1485H39.1156C39.4474 37.1485 39.7162 36.8796 39.7162 36.5479C39.7162 36.2162 39.4473 35.9473 39.1156 35.9473ZM1.24257 14.0395H3.16797C3.49965 14.0395 3.76856 13.7706 3.76856 13.4389C3.76856 13.1072 3.49965 12.8383 3.16797 12.8383H1.63552L5.88774 5.39687C6.00914 5.1845 6.2364 5.05261 6.48096 5.05261H34.519C34.7636 5.05261 34.9909 5.1845 35.1123 5.39687L39.3644 12.8383H37.8316C37.4999 12.8383 37.231 13.1072 37.231 13.4389C37.231 13.7706 37.4999 14.0395 37.8316 14.0395H39.7573C39.4637 16.1683 37.6327 17.8131 35.4245 17.8131C33.2163 17.8131 31.3862 16.1681 31.0925 14.0395H35.2642C35.596 14.0395 35.8648 13.7706 35.8648 13.4389C35.8648 13.1072 35.596 12.8383 35.2642 12.8383H5.73608C5.40439 12.8383 5.13549 13.1072 5.13549 13.4389C5.13549 13.7706 5.40439 14.0395 5.73608 14.0395H9.90743C9.6137 16.1681 7.78351 17.8131 5.57544 17.8131C3.36721 17.8131 1.53622 16.1683 1.24257 14.0395ZM29.8068 14.0395C29.5131 16.1681 27.6829 17.8131 25.4749 17.8131C23.2667 17.8131 21.4366 16.1681 21.1429 14.0395H29.8068ZM19.8571 14.0395C19.5634 16.1681 17.7332 17.8131 15.5251 17.8131C13.3171 17.8131 11.4869 16.1681 11.1932 14.0395H19.8571ZM34.0215 35.9474H27.5197V33.939H34.0215V35.9474ZM34.0215 32.7378H27.5197V21.7425H34.0215V32.7378ZM37.2312 35.9474H35.2228V21.1419C35.2228 20.8102 34.9539 20.5413 34.6222 20.5413H26.9192C26.5875 20.5413 26.3186 20.8102 26.3186 21.1419V35.9473H3.7688V18.7122C4.33583 18.907 4.94314 19.0143 5.57544 19.0143C7.74516 19.0143 9.62931 17.7686 10.5503 15.9548C11.4713 17.7685 13.3554 19.0143 15.5251 19.0143C17.6949 19.0143 19.579 17.7686 20.5 15.9548C21.421 17.7685 23.3051 19.0143 25.4749 19.0143C27.6446 19.0143 29.5287 17.7686 30.4497 15.9548C31.3707 17.7685 33.2548 19.0143 35.4246 19.0143C36.0569 19.0143 36.6642 18.907 37.2312 18.7123V35.9474Z" fill="url(#paint0_linear)"/>
<path d="M23.7097 20.5413H6.37793C6.04625 20.5413 5.77734 20.8102 5.77734 21.1418V33.3383C5.77734 33.67 6.04625 33.9389 6.37793 33.9389H23.7097C24.0415 33.9389 24.3103 33.67 24.3103 33.3383V21.1418C24.3103 20.8101 24.0415 20.5413 23.7097 20.5413ZM23.1091 32.7377H6.97852V21.7424H23.1091V32.7377Z" fill="url(#paint1_linear)"/>
<defs>
<linearGradient id="paint0_linear" x1="20.5" y1="3.85144" x2="20.5" y2="37.1485" gradientUnits="userSpaceOnUse">
<stop stop-color="#FCA839"/>
<stop offset="1" stop-color="#F35F1E"/>
</linearGradient>
<linearGradient id="paint1_linear" x1="15.0438" y1="20.5413" x2="15.0438" y2="33.9389" gradientUnits="userSpaceOnUse">
<stop stop-color="#FCA839"/>
<stop offset="1" stop-color="#F35F1E"/>
</linearGradient>
</defs>
</svg>
