<svg width="50" height="50" viewBox="0 0 50 50" fill="none" xmlns="http://www.w3.org/2000/svg">
<path d="M48.0944 15.1412H26.708C26.3034 15.1412 25.9756 15.4692 25.9756 15.8737C25.9756 16.2781 26.3034 16.6061 26.708 16.6061H48.0945C48.3369 16.6061 48.534 16.8032 48.534 17.0455V23.5947C48.534 23.9991 48.8618 24.3271 49.2664 24.3271C49.6709 24.3271 49.9988 23.9991 49.9987 23.5947V17.0455C49.9988 15.9956 49.1444 15.1412 48.0944 15.1412Z" fill="url(#paint0_linear)"/>
<path d="M12.5265 20.6268H12.1214C11.6997 20.8149 11.0024 20.7461 10.8714 21.2922C10.8664 21.4349 10.8562 21.7204 10.8496 21.8635C11.3737 21.8213 11.2106 22.4228 11.1924 22.7488C10.4766 22.8596 9.74043 22.868 9.05166 23.1168C8.4335 23.0277 8.28067 22.2598 8.16445 21.7423C7.94092 22.3387 8.22324 22.9909 8.62988 23.4377C7.98975 24.0845 7.82012 25.0121 7.61504 25.8623C7.56299 26.4335 7.31943 26.9998 6.87393 27.3678C6.86397 27.4888 6.85713 27.6097 6.85547 27.7307C7.14287 27.7828 7.44365 27.6097 7.4874 27.3074C7.78799 26.3647 8.41299 25.5666 9.24815 25.0458C9.50528 24.9768 9.72364 25.1887 9.86993 25.3718C9.94375 25.7381 9.58897 26.0891 9.81592 26.4421C9.90176 26.9025 10.1653 27.4789 10.7266 27.1981C10.6357 26.8252 10.0714 26.8134 10.1538 26.3413C10.3133 26.153 10.4443 25.9213 10.6829 25.8222C10.8796 26.8319 11.113 27.84 11.0106 28.8803C10.9064 29.3389 11.7684 29.4078 11.775 28.981C11.281 28.0432 11.5364 26.9243 11.849 25.97C12.1968 25.9648 12.5344 25.8793 12.8789 25.8523C13.04 26.6353 12.6556 27.4183 12.7026 28.2013C12.721 28.5811 13.368 28.6214 13.504 28.3004C13.4334 28.0316 13.1074 27.8266 13.2303 27.5208C13.4067 26.6975 13.7646 25.9332 14.0316 25.1417C14.2064 24.4209 13.8049 23.7269 13.7815 23.0279C13.9932 22.6365 13.8133 21.9641 14.3409 21.8231C14.4753 20.8232 13.2707 20.6268 12.5265 20.6268Z" fill="url(#paint1_linear)"/>
<path d="M26.8473 22.4278C26.7937 22.347 26.7038 22.298 26.6069 22.2967C25.9542 22.2879 25.6125 22.2326 25.5088 22.4953C25.1363 23.4382 24.7308 24.4009 24.3568 25.3619C24.3552 25.3633 24.2262 25.5027 24.2243 25.5047C23.0438 22.2876 23.0538 22.3075 22.8096 22.3035C22.5179 22.2987 22.1938 22.326 21.9046 22.3154C21.6904 22.3077 21.5396 22.5259 21.6248 22.7242C21.6507 22.7841 21.6441 22.7741 21.6604 22.8191C22.2833 24.4215 22.8483 25.8967 23.4814 27.5223V27.5224C23.2415 28.0909 22.9899 28.6589 22.7342 29.2104C22.6581 29.3745 22.7357 29.6263 23.0462 29.6267C23.9101 29.6267 24.0779 29.6769 24.1716 29.4426C27.1101 22.1029 26.9659 22.6072 26.8473 22.4278Z" fill="url(#paint2_linear)"/>
<path d="M31.8585 25.9194C31.8595 25.2308 31.8605 24.5187 31.8531 23.8113C31.8392 23.2452 31.5528 22.7168 31.0977 22.4278C30.8291 22.269 30.5217 22.1885 30.1838 22.1885C29.6511 22.1885 29.0904 22.4067 28.6845 22.7723C28.6831 22.7227 28.6809 22.6521 28.6782 22.5781C28.6729 22.4221 28.546 22.2977 28.3899 22.2953C27.6876 22.2849 27.2506 22.2221 27.2529 22.5971C27.2639 24.0967 27.261 25.8033 27.2553 27.5143C27.2549 27.6745 27.3831 27.8053 27.5431 27.808C27.6363 27.8096 27.7414 27.8102 27.8517 27.8102C27.9901 27.8102 28.0846 27.8095 28.3898 27.8078C28.5504 27.8071 28.6805 27.6773 28.6814 27.5168C28.6873 26.6213 28.6838 25.8307 28.6812 24.4845C28.9271 24.0147 29.406 23.5128 30.013 23.5128L30.032 23.5129C30.0406 23.513 30.0488 23.5128 30.0572 23.5122C30.2442 23.5003 30.34 23.6144 30.4156 23.9625L30.4183 23.9754C30.4208 24.8936 30.4197 25.7608 30.4185 27.5139C30.4183 27.6745 30.5474 27.8052 30.708 27.807C31.0104 27.8105 31.2942 27.8108 31.5704 27.8075C31.7314 27.8055 31.8606 27.674 31.8598 27.513C31.8572 26.9795 31.8577 26.4419 31.8585 25.9194Z" fill="url(#paint3_linear)"/>
<path d="M37.5457 22.6053C37.548 22.4556 37.4372 22.3283 37.2886 22.3101C37.0357 22.2791 36.2994 22.2271 36.1226 22.4094C35.9808 22.5551 35.7791 22.3445 35.6116 22.2978C32.7257 21.5185 31.6903 25.3251 33.1963 27.0706C33.9146 27.8521 35.2531 27.9165 36.1021 27.2201C36.1502 29.4442 33.452 27.9297 33.4356 28.7955C33.4144 29.8785 33.3786 29.7469 34.4132 29.7489C35.2558 29.7489 36.006 29.7107 36.6534 29.2412C37.2067 28.8392 37.4984 28.1242 37.5202 27.1193C37.5694 25.6193 37.5227 24.117 37.5457 22.6053ZM36.1189 25.6725C35.4725 26.5646 34.0118 26.8336 34.0134 25.1434C33.9478 23.0455 35.4122 23.1647 36.0754 23.8545C36.1774 24.4423 36.0908 25.0697 36.1189 25.6725Z" fill="url(#paint4_linear)"/>
<path d="M18.6341 26.6017C19.3636 25.2959 20.2086 24.0324 20.9771 22.7418C21.0936 22.5463 20.9512 22.2965 20.7226 22.2989C19.2935 22.3133 17.8444 22.2576 16.421 22.323C16.2641 22.3302 16.1406 22.46 16.1416 22.6172C16.1425 22.8025 16.144 23.0078 16.1428 23.2253C16.1418 23.3868 16.2717 23.5187 16.4333 23.52C17.2521 23.5268 18.0519 23.5189 18.8777 23.5219C16.454 27.3861 16.2469 27.3792 16.4008 27.6575C16.4523 27.751 16.5507 27.809 16.6573 27.809C16.7924 27.809 20.3558 27.8085 21.0014 27.8083C21.1627 27.8082 21.2936 27.6777 21.2941 27.5163C21.2993 26.3566 21.5942 26.596 18.6341 26.6017Z" fill="url(#paint5_linear)"/>
<path d="M43.1311 27.4862C43.1195 27.3549 43.1037 27.2226 43.0873 27.0853L43.0775 27.0046C43.0601 26.8577 42.9358 26.7468 42.7878 26.7462C42.688 26.7458 42.5871 26.7373 42.488 26.721C42.4091 26.1718 42.4199 25.6046 42.4299 25.0557C42.4391 24.5739 42.4484 24.0758 42.3971 23.5882C42.3441 23.0986 42.0341 22.5245 41.4671 22.3476L41.4615 22.3457C41.1703 22.242 40.8519 22.1895 40.5152 22.1895C39.9913 22.1895 39.4123 22.3136 38.7457 22.5688C38.638 22.6101 38.5646 22.7104 38.558 22.8255C38.5143 23.5847 38.5379 23.7048 38.69 23.7957C38.7764 23.8474 38.8833 23.851 38.9729 23.8055C39.3107 23.6342 39.8199 23.4063 40.3408 23.4063C40.4392 23.4063 40.5373 23.4142 40.6324 23.4295L40.65 23.4336C40.9315 23.5248 41.0314 23.7962 40.9843 24.3384C40.2841 24.3511 39.483 24.424 38.8572 24.8647L38.8505 24.8693C38.4175 25.1415 38.1463 25.6443 38.1253 26.2144C38.1044 26.7728 38.3322 27.2832 38.7296 27.5762C39.0286 27.8057 39.3986 27.927 39.8 27.927C40.3062 27.927 40.8163 27.7367 41.1993 27.4049C41.4472 27.7364 41.8451 27.9267 42.2914 27.9267C42.5199 27.9267 42.7518 27.8753 42.962 27.7782C43.0745 27.7263 43.1421 27.6095 43.1311 27.4862ZM40.9456 26.3178C40.6504 26.5391 40.364 26.6513 40.095 26.6513C40.0551 26.6513 40.0151 26.6487 39.9801 26.6442C39.8075 26.6197 39.657 26.4954 39.5875 26.3199C39.5233 26.1587 39.5437 25.9889 39.6412 25.8665C39.8809 25.5679 40.3015 25.4035 40.8259 25.4035C40.8806 25.4035 40.9348 25.4054 40.9877 25.4087C40.9775 25.5221 40.9835 25.6396 40.9892 25.7533C40.9988 25.9422 41.0085 26.1375 40.9456 26.3178Z" fill="url(#paint6_linear)"/>
<path d="M49.2676 26.2804C48.863 26.2804 48.5352 26.6084 48.5352 27.0128V32.9542C48.5352 33.1965 48.3381 33.3936 48.0957 33.3936H1.90439C1.66211 33.3936 1.46494 33.1965 1.46494 32.9542V17.0457C1.46494 16.8034 1.66211 16.6062 1.90439 16.6062H23.2908C23.6954 16.6062 24.0232 16.2783 24.0232 15.8738C24.0232 15.4693 23.6954 15.1414 23.2908 15.1414H1.90439C0.854394 15.1412 0 15.9956 0 17.0457V32.9543C0 34.0045 0.854394 34.8587 1.90439 34.8587H48.0956C49.1457 34.8587 50 34.0044 50 32.9543V27.013C50 26.6084 49.6721 26.2804 49.2676 26.2804Z" fill="url(#paint7_linear)"/>
<defs>
<linearGradient id="paint0_linear" x1="37.9872" y1="15.1412" x2="37.9872" y2="24.3271" gradientUnits="userSpaceOnUse">
<stop stop-color="#AA2553"/>
<stop offset="1" stop-color="#577AC2"/>
</linearGradient>
<linearGradient id="paint1_linear" x1="10.6034" y1="20.6268" x2="10.6034" y2="29.2657" gradientUnits="userSpaceOnUse">
<stop stop-color="#AA2553"/>
<stop offset="1" stop-color="#577AC2"/>
</linearGradient>
<linearGradient id="paint2_linear" x1="24.2486" y1="22.2859" x2="24.2486" y2="29.6312" gradientUnits="userSpaceOnUse">
<stop stop-color="#AA2553"/>
<stop offset="1" stop-color="#577AC2"/>
</linearGradient>
<linearGradient id="paint3_linear" x1="29.5564" y1="22.1885" x2="29.5564" y2="27.8102" gradientUnits="userSpaceOnUse">
<stop stop-color="#AA2553"/>
<stop offset="1" stop-color="#577AC2"/>
</linearGradient>
<linearGradient id="paint4_linear" x1="35.0268" y1="22.194" x2="35.0268" y2="29.753" gradientUnits="userSpaceOnUse">
<stop stop-color="#AA2553"/>
<stop offset="1" stop-color="#577AC2"/>
</linearGradient>
<linearGradient id="paint5_linear" x1="18.723" y1="22.2904" x2="18.723" y2="27.809" gradientUnits="userSpaceOnUse">
<stop stop-color="#AA2553"/>
<stop offset="1" stop-color="#577AC2"/>
</linearGradient>
<linearGradient id="paint6_linear" x1="40.6281" y1="22.1895" x2="40.6281" y2="27.927" gradientUnits="userSpaceOnUse">
<stop stop-color="#AA2553"/>
<stop offset="1" stop-color="#577AC2"/>
</linearGradient>
<linearGradient id="paint7_linear" x1="25" y1="15.1414" x2="25" y2="34.8587" gradientUnits="userSpaceOnUse">
<stop stop-color="#AA2553"/>
<stop offset="1" stop-color="#577AC2"/>
</linearGradient>
</defs>
</svg>
