<svg width="50" height="50" viewBox="0 0 50 50" fill="none" xmlns="http://www.w3.org/2000/svg">
<g clip-path="url(#clip0)">
<path d="M49.0051 13.6661H16.7308C16.1807 13.6661 15.7348 14.112 15.7348 14.6621V16.5406H6.2416C5.6915 16.5406 5.24561 16.9864 5.24561 17.5365C5.24561 18.0866 5.6915 18.5325 6.2416 18.5325H15.7348V31.4673H10.0608C9.51074 31.4673 9.06484 31.9132 9.06484 32.4633C9.06484 33.0134 9.51074 33.4593 10.0608 33.4593H15.7348V35.3377C15.7348 35.8878 16.1807 36.3337 16.7308 36.3337H49.0051C49.5552 36.3337 50.0011 35.8878 50.0011 35.3377V14.6621C50.0011 14.112 49.5552 13.6661 49.0051 13.6661ZM46.5481 15.6581L32.8693 26.8871L19.253 15.6581H46.5481ZM48.0091 34.3418H17.7269V16.9815L32.2343 28.9453C32.4183 29.097 32.6431 29.173 32.868 29.173C33.0921 29.173 33.3163 29.0976 33.4999 28.9468L48.0091 17.0361V34.3418Z" fill="url(#paint0_linear)"/>
<path d="M11.6868 23.9031H0.995996C0.445898 23.9031 0 24.349 0 24.8991C0 25.4492 0.445898 25.8951 0.995996 25.8951H11.6868C12.2369 25.8951 12.6828 25.4492 12.6828 24.8991C12.6829 24.349 12.2369 23.9031 11.6868 23.9031Z" fill="url(#paint1_linear)"/>
<path d="M6.77295 31.4675H6.24062C5.69053 31.4675 5.24463 31.9134 5.24463 32.4635C5.24463 33.0136 5.69053 33.4595 6.24062 33.4595H6.77295C7.32305 33.4595 7.76895 33.0136 7.76895 32.4635C7.76895 31.9134 7.32305 31.4675 6.77295 31.4675Z" fill="url(#paint2_linear)"/>
</g>
<defs>
<linearGradient id="paint0_linear" x1="27.6233" y1="13.6661" x2="27.6233" y2="36.3337" gradientUnits="userSpaceOnUse">
<stop stop-color="#C9E7C1"/>
<stop offset="1" stop-color="#25BDBE"/>
</linearGradient>
<linearGradient id="paint1_linear" x1="6.34141" y1="23.9031" x2="6.34141" y2="25.8951" gradientUnits="userSpaceOnUse">
<stop stop-color="#C9E7C1"/>
<stop offset="1" stop-color="#25BDBE"/>
</linearGradient>
<linearGradient id="paint2_linear" x1="6.50679" y1="31.4675" x2="6.50679" y2="33.4595" gradientUnits="userSpaceOnUse">
<stop stop-color="#C9E7C1"/>
<stop offset="1" stop-color="#25BDBE"/>
</linearGradient>
<clipPath id="clip0">
<rect width="50" height="50" fill="white"/>
</clipPath>
</defs>
</svg>
