<svg width="41" height="41" viewBox="0 0 41 41" fill="none" xmlns="http://www.w3.org/2000/svg">
<path d="M21.1406 34.5938H19.8594V35.875H21.1406V34.5938Z" fill="url(#paint0_linear)"/>
<path d="M33.9531 0H7.04688C6.69325 0 6.40625 0.287 6.40625 0.640625V2.5625C6.40625 3.26911 6.98089 3.84375 7.6875 3.84375V7.04688C7.6875 8.10647 8.54978 8.96875 9.60938 8.96875C10.1988 8.96875 10.7209 8.69648 11.0738 8.27688C11.5312 8.70289 12.1398 8.96875 12.8125 8.96875C13.5813 8.96875 14.2642 8.62153 14.7344 8.08341C15.2046 8.62153 15.8875 8.96875 16.6562 8.96875C17.425 8.96875 18.1079 8.62153 18.5781 8.08341C19.0483 8.62153 19.7312 8.96875 20.5 8.96875C21.2694 8.96875 21.9517 8.62153 22.4219 8.08341C22.8921 8.62153 23.5744 8.96875 24.3438 8.96875C25.1131 8.96875 25.7954 8.62153 26.2656 8.08341C26.7358 8.62153 27.4181 8.96875 28.1875 8.96875C28.8602 8.96875 29.4688 8.70289 29.9262 8.27688C30.2791 8.69648 30.8012 8.96875 31.3906 8.96875C32.4502 8.96875 33.3125 8.10647 33.3125 7.04688V3.84375C34.0191 3.84375 34.5938 3.26911 34.5938 2.5625V0.640625C34.5938 0.287 34.3074 0 33.9531 0ZM10.25 6.40625V7.04688C10.25 7.39986 9.96236 7.6875 9.60938 7.6875C9.25639 7.6875 8.96875 7.39986 8.96875 7.04688V3.84375H10.25V6.40625ZM14.0938 6.40625C14.0938 7.11286 13.5191 7.6875 12.8125 7.6875C12.1059 7.6875 11.5312 7.11286 11.5312 6.40625V3.84375H14.0938V6.40625ZM17.9375 6.40625C17.9375 7.11286 17.3629 7.6875 16.6562 7.6875C15.9496 7.6875 15.375 7.11286 15.375 6.40625V3.84375H17.9375V6.40625ZM21.7812 6.40625C21.7812 7.11286 21.2066 7.6875 20.5 7.6875C19.7934 7.6875 19.2188 7.11286 19.2188 6.40625V3.84375H21.7812V6.40625ZM25.625 6.40625C25.625 7.11286 25.0504 7.6875 24.3438 7.6875C23.6371 7.6875 23.0625 7.11286 23.0625 6.40625V3.84375H25.625V6.40625ZM29.4688 6.40625C29.4688 7.11286 28.8941 7.6875 28.1875 7.6875C27.4809 7.6875 26.9062 7.11286 26.9062 6.40625V3.84375H29.4688V6.40625ZM32.0312 7.04688C32.0312 7.39986 31.7442 7.6875 31.3906 7.6875C31.037 7.6875 30.75 7.39986 30.75 7.04688V6.40625V3.84375H32.0312V7.04688ZM7.6875 2.5625V1.28125H33.3125L33.3131 2.5625H7.6875Z" fill="url(#paint1_linear)"/>
<path d="M16.6562 15.375H14.0938V16.6562H16.6562V15.375Z" fill="url(#paint2_linear)"/>
<path d="M21.7812 29.4688H19.2188V30.75H21.7812V29.4688Z" fill="url(#paint3_linear)"/>
<path d="M24.3438 29.4688H23.0625V30.75H24.3438V29.4688Z" fill="url(#paint4_linear)"/>
<path d="M17.9375 29.4688H16.6562V30.75H17.9375V29.4688Z" fill="url(#paint5_linear)"/>
<path d="M39.7188 4.48438H35.875V5.76562H39.7188V26.9062H34.5938V25.625C34.5938 24.9184 34.0191 24.3438 33.3125 24.3438H32.0312V10.25H30.75V11.5312H23.0625C22.3559 11.5312 21.7812 12.1059 21.7812 12.8125V21.7812C21.7812 22.4879 22.3559 23.0625 23.0625 23.0625H30.75V24.3438H19.2188V15.375C19.2188 13.2552 17.4948 11.5312 15.375 11.5312C13.2552 11.5312 11.5312 13.2552 11.5312 15.375V24.3438H10.25V10.25H8.96875V24.3438H7.6875C6.98089 24.3438 6.40625 24.9184 6.40625 25.625V26.9062H1.28125V5.76562H5.125V4.48438H1.28125C0.574641 4.48438 0 5.05902 0 5.76562V27.5469V32.0312C0 32.7379 0.574641 33.3125 1.28125 33.3125H15.9625L15.6569 37.1562H12.8125C12.1059 37.1562 11.5312 37.7309 11.5312 38.4375V40.3594C11.5312 40.713 11.8183 41 12.1719 41H28.8281C29.1824 41 29.4688 40.713 29.4688 40.3594V38.4375C29.4688 37.7309 28.8941 37.1562 28.1875 37.1562H25.3438L25.0375 33.3125H39.7188C40.4254 33.3125 41 32.7379 41 32.0312V27.5469V5.76562C41 5.05902 40.4254 4.48438 39.7188 4.48438ZM23.0625 21.7812V12.8125H30.75V21.7812H23.0625ZM12.8125 15.375C12.8125 13.9618 13.9618 12.8125 15.375 12.8125C16.7882 12.8125 17.9375 13.9618 17.9375 15.375V24.3438H12.8125V15.375ZM7.6875 25.625H33.3125V26.9062H7.6875V25.625ZM28.1875 38.4375V39.7188H12.8125V38.4375H16.2488C16.5826 38.4375 16.8613 38.1806 16.8875 37.8475L17.2482 33.3125H23.7518L24.1131 37.8475C24.14 38.1806 24.4174 38.4375 24.7518 38.4375H28.1875ZM39.7188 32.0312H1.28125V28.1875H39.7188V32.0312Z" fill="url(#paint6_linear)"/>
<defs>
<linearGradient id="paint0_linear" x1="20.5" y1="34.5938" x2="20.5" y2="35.875" gradientUnits="userSpaceOnUse">
<stop stop-color="#62CAD6"/>
<stop offset="1" stop-color="#314F8D"/>
</linearGradient>
<linearGradient id="paint1_linear" x1="20.5" y1="0" x2="20.5" y2="8.96875" gradientUnits="userSpaceOnUse">
<stop stop-color="#62CAD6"/>
<stop offset="1" stop-color="#314F8D"/>
</linearGradient>
<linearGradient id="paint2_linear" x1="15.375" y1="15.375" x2="15.375" y2="16.6562" gradientUnits="userSpaceOnUse">
<stop stop-color="#62CAD6"/>
<stop offset="1" stop-color="#314F8D"/>
</linearGradient>
<linearGradient id="paint3_linear" x1="20.5" y1="29.4688" x2="20.5" y2="30.75" gradientUnits="userSpaceOnUse">
<stop stop-color="#62CAD6"/>
<stop offset="1" stop-color="#314F8D"/>
</linearGradient>
<linearGradient id="paint4_linear" x1="23.7031" y1="29.4688" x2="23.7031" y2="30.75" gradientUnits="userSpaceOnUse">
<stop stop-color="#62CAD6"/>
<stop offset="1" stop-color="#314F8D"/>
</linearGradient>
<linearGradient id="paint5_linear" x1="17.2969" y1="29.4688" x2="17.2969" y2="30.75" gradientUnits="userSpaceOnUse">
<stop stop-color="#62CAD6"/>
<stop offset="1" stop-color="#314F8D"/>
</linearGradient>
<linearGradient id="paint6_linear" x1="20.5" y1="4.48437" x2="20.5" y2="41" gradientUnits="userSpaceOnUse">
<stop stop-color="#62CAD6"/>
<stop offset="1" stop-color="#314F8D"/>
</linearGradient>
</defs>
</svg>
