<svg width="50" height="50" viewBox="0 0 50 50" fill="none" xmlns="http://www.w3.org/2000/svg">
<path d="M47.3842 19.0167C49.4508 16.4896 50.3547 13.2077 49.8734 9.97879C48.9394 3.60562 43.0159 -0.80381 36.6426 0.130163C33.7692 0.551279 31.1562 2.02914 29.3149 4.27478C27.8614 6.13127 25.452 6.95924 23.1644 6.38827C21.2408 5.85386 19.2297 5.70995 17.2496 5.96507C10.5552 6.86895 5.27238 12.1035 4.30706 18.7893C3.89271 21.7741 4.39287 24.8144 5.7416 27.509C2.5245 27.5555 -0.0458239 30.2011 0.000619608 33.4181C0.0423771 36.3131 2.20398 38.7382 5.07515 39.1112L5.97403 48.3307C5.97403 49.251 6.71994 49.9969 7.64016 49.9969H12.5011C12.9875 49.9965 13.4496 49.7834 13.7657 49.4137C14.0948 49.0208 14.2294 48.5007 14.1323 47.9975L11.9046 39.167H12.3212C13.2425 39.172 14.1627 39.2382 15.0753 39.3653C18.0653 45.8474 24.5524 49.9982 31.6908 49.9969C32.2407 49.9969 32.796 49.9722 33.357 49.9227C42.1949 49.0502 49.1593 42.0091 49.935 33.1622C50.2616 29.2363 49.3048 25.3104 47.2084 21.975C46.6266 21.0533 46.6973 19.8631 47.3842 19.0167ZM5.0035 37.4175C2.74901 36.9598 1.2926 34.7611 1.75037 32.5066C2.08318 30.8674 3.36434 29.5863 5.0035 29.2535V37.4175ZM12.5011 48.3307L7.636 48.2474L6.75295 39.167H10.1844L12.5011 48.3307ZM6.66964 37.5009V29.1702H8.33578V37.5009H6.66964ZM12.3187 37.5009H10.0019V29.1702H12.3187C14.7363 29.171 17.1382 28.7811 19.4314 28.0155L23.331 26.716V39.9551L19.4314 38.6555C17.1382 37.89 14.7363 37.5 12.3187 37.5009ZM48.2689 33.0281C47.533 42.1857 39.5128 49.0128 30.3552 48.277C24.7912 47.8298 19.8223 44.6219 17.1246 39.7351C17.7228 39.8776 18.3176 40.04 18.9049 40.235L28.0687 43.289C28.1527 43.3171 28.2408 43.3317 28.3294 43.3323C28.7895 43.3323 29.1625 42.9593 29.1625 42.4993V38.3339C31.0028 38.3339 32.4947 36.842 32.4947 35.0016V31.6694C32.4947 29.829 31.0028 28.3371 29.1625 28.3371V24.1718C29.1626 23.7117 28.7897 23.3386 28.3296 23.3385C28.2401 23.3385 28.1511 23.3529 28.0662 23.3812L18.9024 26.4352C16.7796 27.1433 14.5565 27.5042 12.3187 27.504H7.64016C6.14241 24.9404 5.55 21.9477 5.9582 19.0067C6.96496 11.7192 13.6889 6.62747 20.9764 7.63412C21.5631 7.71514 22.1438 7.83531 22.7145 7.99359C25.6385 8.74346 28.7298 7.70067 30.602 5.33278C34.0898 1.05674 40.3835 0.417676 44.6596 3.90531C48.9357 7.39295 49.5748 13.6868 46.0871 17.9629C44.95 19.3628 44.8311 21.3314 45.7913 22.858C47.6966 25.8904 48.566 29.4592 48.2689 33.0281ZM24.9971 40.5107V26.1603L27.4963 25.3272V41.3438L24.9971 40.5107ZM29.1625 36.6678V30.0032C30.0827 30.0032 30.8286 30.7491 30.8286 31.6694V35.0016C30.8286 35.9219 30.0826 36.6678 29.1625 36.6678Z" fill="white"/>
<path d="M15.0002 34.1675H11.668V35.8336H15.0002V34.1675Z" fill="white"/>
<path d="M15.0002 30.8352H11.668V32.5013H15.0002V30.8352Z" fill="white"/>
<path d="M42.3519 11.2124C42.2909 11.121 42.2125 11.0425 42.121 10.9815L37.1226 7.64921C36.7399 7.39387 36.2225 7.49707 35.9672 7.87986C35.8759 8.0168 35.8271 8.17768 35.8271 8.34232V15.0069C35.827 15.3142 35.9961 15.5966 36.267 15.7416C36.5381 15.8867 36.8669 15.8706 37.1226 15.7L42.121 12.3677C42.5038 12.1125 42.6072 11.5952 42.3519 11.2124ZM37.4933 13.4499V9.89932L40.1591 11.6746L37.4933 13.4499Z" fill="white"/>
<path d="M38.3262 4.177C34.1855 4.177 30.8286 7.53374 30.8286 11.6746C30.8332 15.8135 34.1873 19.1676 38.3262 19.1722C42.4671 19.1722 45.8238 15.8154 45.8238 11.6746C45.8238 7.53385 42.467 4.177 38.3262 4.177ZM38.3262 17.5061C35.1056 17.5061 32.4947 14.8952 32.4947 11.6746C32.4984 8.45553 35.1071 5.84678 38.3262 5.84314C41.5469 5.84314 44.1577 8.45397 44.1577 11.6746C44.1577 14.8952 41.5469 17.5061 38.3262 17.5061Z" fill="white"/>
<path d="M21.665 15.0069H20.8319C20.3718 15.0069 19.9988 14.6339 19.9988 14.1738V11.6746C19.9988 10.2943 18.8799 9.17542 17.4996 9.17542C16.1193 9.17542 15.0004 10.2943 15.0004 11.6746V14.1738C15.0004 14.6339 14.6274 15.0069 14.1674 15.0069C14.1674 14.5468 13.7943 14.1738 13.3343 14.1738H10.002C9.54195 14.1738 9.16895 14.5468 9.16895 15.0069V24.1706C9.16895 24.6307 9.54195 25.0037 10.002 25.0037H13.3343C13.7943 25.0037 14.1674 24.6307 14.1674 24.1706H21.665C23.0452 24.1706 24.1642 23.0517 24.1642 21.6714V17.5061C24.1642 16.1259 23.0452 15.0069 21.665 15.0069ZM12.5012 23.3376H10.8351V15.84H12.5012V23.3376ZM22.498 21.6714C22.498 22.1315 22.125 22.5045 21.665 22.5045H14.1674V16.673C15.5476 16.673 16.6666 15.5541 16.6666 14.1738V11.6746C16.6666 11.2146 17.0396 10.8416 17.4996 10.8416C17.9597 10.8416 18.3327 11.2146 18.3327 11.6746V14.1738C18.3327 15.5541 19.4516 16.673 20.8319 16.673H21.665C22.125 16.673 22.498 17.046 22.498 17.5061V21.6714Z" fill="white"/>
<path d="M45.9236 30.2536L45.5687 29.8971C44.7246 29.0585 43.4074 28.9283 42.4156 29.5855L41.515 30.1862L40.6145 29.5855C39.6227 28.9277 38.3051 29.0579 37.4613 29.8971L37.1048 30.2536C36.1291 31.2296 36.1291 32.8116 37.1048 33.7875L40.9252 37.6071C41.2505 37.9323 41.7779 37.9323 42.1032 37.6071L45.9236 33.7875C46.8992 32.8116 46.8992 31.2296 45.9236 30.2536ZM44.7471 32.6089C44.7469 32.6091 44.7467 32.6093 44.7465 32.6095L41.515 35.8402L38.2844 32.6129C37.9592 32.2876 37.9592 31.7602 38.2844 31.4349L38.6401 31.0792C38.921 30.7982 39.361 30.7547 39.6914 30.9751L41.0535 31.8831C41.3334 32.0699 41.6983 32.0699 41.9782 31.8831L43.3411 30.9751C43.6712 30.7549 44.1108 30.7981 44.3916 31.0784V31.075L44.7465 31.4308C45.072 31.756 45.0723 32.2834 44.7471 32.6089Z" fill="white"/>
<path d="M32.5219 22.3033L31.688 25.6354L33.3035 26.0397L34.1374 22.7077L32.5219 22.3033Z" fill="white"/>
<path d="M37.1197 25.0914L33.7876 26.7574L34.5327 28.2476L37.8648 26.5816L37.1197 25.0914Z" fill="white"/>
<path d="M33.2991 41.4626L31.6836 41.8665L32.5165 45.1985L34.132 44.7947L33.2991 41.4626Z" fill="white"/>
<path d="M34.5322 39.2531L33.7871 40.7433L37.1192 42.4093L37.8643 40.9191L34.5322 39.2531Z" fill="white"/>
<path d="M0.838379 22.5045H2.50451C2.50451 11.1998 9.20821 4.177 19.9989 4.177V2.51086C8.18021 2.51086 0.838379 10.1751 0.838379 22.5045Z" fill="white"/>
</svg>
