<svg width="45" height="45" viewBox="0 0 45 45" fill="none" xmlns="http://www.w3.org/2000/svg">
<path d="M28.3438 20.0001H8.34375V21.6667H28.3438V20.0001Z" fill="white"/>
<path d="M8.34375 24.9999V26.6666H24.564L26.2307 24.9999H8.34375Z" fill="white"/>
<path d="M8.34375 29.9999V31.6666H19.5637L21.2305 29.9999H8.34375Z" fill="white"/>
<path d="M16.6771 35.0002H8.34375V36.6669H16.6771V35.0002Z" fill="white"/>
<path d="M42.8348 17.8236L40.4777 15.4667C39.8272 14.8162 38.7713 14.8161 38.1208 15.4666C32.1054 21.482 26.074 27.5134 20.0108 33.5765C20.0108 36.4606 20.0108 35.8358 20.0108 38.333C24.0231 38.333 23.0081 38.3349 24.6894 38.3259C25.5593 37.456 29.3985 33.6169 33.3442 29.6714V41.6667C33.3442 42.5871 32.598 43.3333 31.6775 43.3333H5.0107C4.09017 43.3333 3.34402 42.5871 3.34402 41.6667V11.6665C3.34402 10.746 4.09017 9.99984 5.0107 9.99984H8.34436V13.3333H28.3441V9.99994L31.6775 9.99984C32.598 9.99984 33.3442 10.746 33.3442 11.6665V17.8568L35.0108 16.1785V11.6665C35.0108 9.82546 33.5184 8.33316 31.6775 8.33316H28.0562C27.521 6.82045 26.2811 5.64055 24.7287 5.19419C23.9613 4.97356 23.3707 4.38294 23.1499 3.61554C22.5494 1.5274 20.6251 0 18.344 0C16.0629 0 14.1388 1.5274 13.5383 3.61523C13.3173 4.38356 12.7252 4.97346 11.957 5.19482C10.4052 5.64201 9.16426 6.82066 8.62967 8.33316H5.01059C3.16965 8.33316 1.67725 9.82546 1.67725 11.6665V41.6667C1.67725 43.5076 3.16965 45 5.01059 45H31.6774C33.5183 45 35.0107 43.5076 35.0107 41.6667V28.0048C38.594 24.4217 41.9313 21.0843 42.8347 20.1807C43.4853 19.5301 43.4853 18.4741 42.8348 17.8236ZM10.0108 9.97317C10.0223 8.50796 11.0123 7.2017 12.4183 6.79649C13.7423 6.41503 14.7598 5.39794 15.14 4.07606C15.548 2.6573 16.8655 1.66667 18.344 1.66667C19.8225 1.66667 21.14 2.6573 21.548 4.07606C21.9284 5.39878 22.9452 6.41555 24.2679 6.79587C25.6864 7.20399 26.6773 8.5215 26.6773 9.99994V11.6666H10.0108V9.97317ZM23.9951 36.6632C23.5629 36.6656 23.3859 36.6663 22.7879 36.6665L21.6773 35.556V34.2669C22.0905 33.8538 22.3762 33.5681 22.8001 33.1442L25.157 35.5012L23.9951 36.6632ZM26.3355 34.3228L23.9785 31.9658L34.5852 21.3592L36.9422 23.7163L26.3355 34.3228ZM38.1206 22.5376L35.7637 20.1806L36.9422 19.0021L39.2993 21.3591L38.1206 22.5376ZM40.4777 20.1807L38.1206 17.8236L39.2992 16.6452L41.6563 19.0022L40.4777 20.1807Z" fill="white"/>
<path d="M18.3691 6.25001C19.0595 6.25001 19.6192 5.69037 19.6192 5.00001C19.6192 4.30965 19.0595 3.75 18.3691 3.75C17.6788 3.75 17.1191 4.30965 17.1191 5.00001C17.1191 5.69037 17.6788 6.25001 18.3691 6.25001Z" fill="white"/>
</svg>
