<svg width="45" height="45" viewBox="0 0 45 45" fill="none" xmlns="http://www.w3.org/2000/svg">
<path d="M44.2742 18.871H33.3871V0.725806C33.3871 0.325337 33.0628 0 32.6613 0H0.725806C0.324274 0 0 0.325337 0 0.725806V25.4032C0 25.8037 0.324274 26.129 0.725806 26.129H11.6129V44.2742C11.6129 44.6747 11.9372 45 12.3387 45H44.2742C44.6757 45 45 44.6747 45 44.2742V19.5968C45 19.1963 44.6757 18.871 44.2742 18.871ZM27.8135 34.6463C27.9538 34.7749 28.13 34.8387 28.3065 34.8387C28.4815 34.8387 28.6555 34.7763 28.7948 34.6502L31.3245 32.3505L42.5221 43.5484H14.0909L25.3068 32.3324L27.8135 34.6463ZM32.3994 31.3731L43.5484 21.2369V42.5213L32.3994 31.3731ZM42.3966 20.3226L28.31 33.1287L20.7277 26.129H32.6613C33.0628 26.129 33.3871 25.8037 33.3871 25.4032V20.3226H42.3966ZM31.9355 23.6511L20.7865 12.5021L31.9355 2.36596V23.6511ZM16.6935 14.2606L2.60341 1.45161H30.7844L16.6935 14.2606ZM12.6006 12.5021L1.45161 23.6511V2.36596L12.6006 12.5021ZM13.6755 13.4795L16.2052 15.7792C16.3438 15.9047 16.5185 15.9677 16.6935 15.9677C16.8686 15.9677 17.0433 15.9047 17.1819 15.7792L19.7116 13.4795L30.9091 24.6774H2.47795L13.6755 13.4795ZM18.5871 26.129L24.2397 31.3468L13.0645 42.5221V26.129H18.5871Z" fill="white"/>
</svg>
