<svg width="50" height="50" viewBox="0 0 50 50" fill="none" xmlns="http://www.w3.org/2000/svg">
<path d="M45.9677 8.06452H40.3226V0H16.6016L9.67742 6.92414V8.06452H4.03226C1.809 8.06452 0 9.87352 0 12.0968V41.129C0 43.3523 1.809 45.1613 4.03226 45.1613H13.7097V48.3871H10.4839V50H39.5161V48.3871H36.2903V45.1613H45.9677C48.191 45.1613 50 43.3523 50 41.129V12.0968C50 9.87352 48.191 8.06452 45.9677 8.06452ZM45.1613 38.7097H40.3226V12.9032H45.1613V38.7097ZM38.7097 38.7097H11.2903V8.06452H17.7419V1.6129H38.7097V38.7097ZM9.67742 38.7097H4.83871V12.9032H9.67742V38.7097ZM12.4307 6.45161L16.129 2.75328V6.45161H12.4307ZM1.6129 12.0968C1.6129 10.7631 2.69854 9.67742 4.03226 9.67742H9.67742V11.2903H4.83871C3.94917 11.2903 3.22581 12.0137 3.22581 12.9032V38.7097H1.6129V12.0968ZM34.6774 48.3871H15.3226V45.1613H34.6774V48.3871ZM48.3871 41.129C48.3871 42.4627 47.3015 43.5484 45.9677 43.5484H4.03226C2.69854 43.5484 1.6129 42.4627 1.6129 41.129V40.3226H48.3871V41.129ZM46.7742 38.7097V12.9032C46.7742 12.0137 46.0508 11.2903 45.1613 11.2903H40.3226V9.67742H45.9677C47.3015 9.67742 48.3871 10.7631 48.3871 12.0968V38.7097H46.7742Z" fill="white"/>
<path d="M12.9033 37.0968H37.0969V12.9033H12.9033V37.0968ZM14.5162 19.3549H19.3549V35.4839H14.5162V19.3549ZM20.9678 35.4839V19.3549H35.484V35.4839H20.9678ZM35.484 17.742H20.9678V14.5162H35.484V17.742ZM19.3549 14.5162V17.742H14.5162V14.5162H19.3549Z" fill="white"/>
<path d="M16.1289 20.9678H17.7418V22.5807H16.1289V20.9678Z" fill="white"/>
<path d="M22.5806 20.9678H24.1935V22.5807H22.5806V20.9678Z" fill="white"/>
<path d="M25.8066 20.9678H33.8712V22.5807H25.8066V20.9678Z" fill="white"/>
<path d="M22.5806 24.1935H33.8709V25.8064H22.5806V24.1935Z" fill="white"/>
<path d="M16.1289 29.0322H17.7418V30.6451H16.1289V29.0322Z" fill="white"/>
<path d="M22.5806 29.0322H24.1935V30.6451H22.5806V29.0322Z" fill="white"/>
<path d="M25.8066 29.0322H33.8712V30.6451H25.8066V29.0322Z" fill="white"/>
<path d="M22.5806 32.2581H33.8709V33.871H22.5806V32.2581Z" fill="white"/>
<path d="M25 3.22583H37.0968V4.83873H25V3.22583Z" fill="white"/>
<path d="M25 6.4516H30.6452V8.0645H25V6.4516Z" fill="white"/>
<path d="M32.2583 6.4516H37.097V8.0645H32.2583V6.4516Z" fill="white"/>
<path d="M25 9.67743H37.0968V11.2903H25V9.67743Z" fill="white"/>
</svg>
