<svg width="50" height="50" viewBox="0 0 50 50" fill="none" xmlns="http://www.w3.org/2000/svg">
<path d="M3.08096 3.91412H46.919C48.618 3.91412 50 5.29615 50 6.99498V36.7423C50 38.4412 48.618 39.8232 46.919 39.8232H32.0923L32.692 44.621H35.1768C35.5813 44.621 35.9092 44.9489 35.9092 45.3534C35.9092 45.7579 35.5813 46.0858 35.1768 46.0858H14.8232C14.4187 46.0858 14.0908 45.7579 14.0908 45.3534C14.0908 44.9489 14.4187 44.621 14.8232 44.621H17.3079L17.9077 39.8232H3.08096C1.38213 39.8232 0 38.4412 0 36.7423V6.99498C0 5.29615 1.38203 3.91412 3.08096 3.91412ZM31.2157 44.621L30.6159 39.8232H27.9203L27.6559 40.8808C27.3506 42.1018 26.2584 42.9545 24.9999 42.9545C23.7414 42.9545 22.6492 42.1018 22.3439 40.8808L22.0795 39.8232H19.3839L18.7843 44.621H31.2157ZM26.4104 39.8232H23.5896L23.7652 40.5256C23.9071 41.0932 24.4148 41.4896 25.0001 41.4896C25.5854 41.4896 26.093 41.0931 26.235 40.5256L26.4104 39.8232ZM1.46484 36.7423C1.46484 37.6335 2.18985 38.3584 3.08096 38.3584H46.919C47.8102 38.3584 48.5352 37.6335 48.5352 36.7423V6.99498C48.5352 6.10387 47.8102 5.37897 46.919 5.37897H3.08096C2.18985 5.37897 1.46484 6.10387 1.46484 6.99498V36.7423Z" fill="white"/>
<path d="M8.56064 7.04553H46.1362C46.5408 7.04553 46.8687 7.37336 46.8687 7.77795V35.9596C46.8687 36.3642 46.5408 36.692 46.1362 36.692H44.5705C44.1659 36.692 43.8381 36.3642 43.8381 35.9596C43.838 35.5551 44.1659 35.2272 44.5704 35.2272H45.4037V8.51038H8.56064C8.15605 8.51038 7.82822 8.18245 7.82822 7.77795C7.82822 7.37336 8.15605 7.04553 8.56064 7.04553Z" fill="white"/>
<path d="M3.86386 7.04553H5.42958C5.83418 7.04553 6.16201 7.37336 6.16201 7.77795C6.16201 8.18245 5.83418 8.51038 5.42958 8.51038H4.59629V35.2272H41.4395C41.844 35.2272 42.1719 35.5551 42.1719 35.9596C42.1719 36.3642 41.844 36.692 41.4395 36.692H3.86396C3.45937 36.692 3.13154 36.3642 3.13154 35.9596V7.77795C3.13144 7.37336 3.45937 7.04553 3.86386 7.04553Z" fill="white"/>
<path d="M15.0294 15.1547C15.161 14.9865 15.3596 14.8841 15.5728 14.8744L32.7949 14.0915C32.8084 14.0909 32.8216 14.0906 32.8351 14.0908C32.9371 13.7562 33.1525 13.4659 33.4441 13.2714L35.5532 11.8654C35.8897 11.641 36.3445 11.732 36.5688 12.0686C36.7932 12.4052 36.7022 12.8599 36.3657 13.0842L34.2567 14.4901C34.2468 14.4967 34.2394 14.5068 34.2361 14.5183L31.5497 23.9207C31.4659 24.2139 31.328 24.4774 31.151 24.7049L32.1339 26.6707C32.3705 27.1439 32.3457 27.6949 32.0676 28.1449C31.9667 28.3081 31.8388 28.4471 31.6918 28.5584C31.8842 28.8943 31.9948 29.2827 31.9948 29.6968C31.9948 30.964 30.9639 31.9949 29.6968 31.9949C28.4297 31.9949 27.3987 30.9639 27.3987 29.6968C27.3987 29.403 27.4548 29.1221 27.5558 28.8636H20.8783C20.9793 29.1221 21.0353 29.403 21.0353 29.6968C21.0353 30.964 20.0044 31.9949 18.7373 31.9949C17.4702 31.9949 16.4392 30.9639 16.4392 29.6968C16.4392 29.3292 16.5264 28.9819 16.6806 28.6735C16.5327 28.5395 16.4392 28.3465 16.4392 28.1312C16.4392 27.7267 16.7671 27.3988 17.1717 27.3988H30.7789C30.7893 27.3988 30.807 27.3988 30.8218 27.3748C30.8365 27.351 30.8286 27.3353 30.8239 27.3258L29.9184 25.515C29.7342 25.5623 29.5422 25.5879 29.3457 25.5879C29.2552 25.5879 29.1638 25.5825 29.0718 25.5718L18.7802 24.3611C17.451 24.2046 16.3815 23.2179 16.119 21.9054L14.888 15.7497C14.8461 15.5403 14.8977 15.323 15.0294 15.1547ZM18.7375 28.8638C18.278 28.8638 17.9043 29.2376 17.9043 29.697C17.9043 30.1565 18.278 30.5302 18.7375 30.5302C19.197 30.5302 19.5707 30.1565 19.5707 29.697C19.5707 29.2375 19.197 28.8638 18.7375 28.8638ZM29.697 28.8638C29.2375 28.8638 28.8638 29.2375 28.8638 29.697C28.8638 30.1565 29.2375 30.5302 29.697 30.5302C30.1564 30.5302 30.5302 30.1565 30.5302 29.697C30.5302 29.2375 30.1564 28.8638 29.697 28.8638ZM31.4931 18.7878L32.4109 15.5754L29.4827 15.7085L28.975 18.7878H31.4931ZM29.2429 24.117C29.6513 24.1651 30.0287 23.9132 30.1414 23.5184L31.0745 20.2527H28.7335L28.1182 23.9847L29.2429 24.117ZM24.9496 23.6119L26.6617 23.8134L27.2487 20.2528H24.9496V23.6119ZM24.9496 18.7878H27.4903L27.9868 15.7766L24.9496 15.9147V18.7878ZM21.2404 23.1755L23.4848 23.4396V20.2527H20.9759L21.2404 23.1755ZM20.8432 18.7878H23.4848V15.9812L20.6011 16.1122L20.8432 18.7878ZM17.5556 21.6183C17.6932 22.3066 18.2542 22.8242 18.9514 22.9063L19.7538 23.0007L19.5051 20.2528H17.2825L17.5556 21.6183ZM16.9894 18.7878H19.3723L19.1362 16.1788L16.4917 16.299L16.9894 18.7878Z" fill="white"/>
</svg>
