<svg width="45" height="45" viewBox="0 0 45 45" fill="none" xmlns="http://www.w3.org/2000/svg">
<path d="M7.7043 39.4543H4.18164C3.8176 39.4543 3.52246 39.7495 3.52246 40.1135C3.52246 40.4776 3.8176 40.7727 4.18164 40.7727H7.70439C8.06843 40.7727 8.36357 40.4776 8.36357 40.1135C8.36357 39.7495 8.06834 39.4543 7.7043 39.4543Z" fill="white"/>
<path d="M9.81789 36.6362H4.18164C3.8176 36.6362 3.52246 36.9314 3.52246 37.2954C3.52246 37.6595 3.8176 37.9546 4.18164 37.9546H9.81798C10.182 37.9546 10.4772 37.6595 10.4772 37.2954C10.4772 36.9314 10.182 36.6362 9.81789 36.6362Z" fill="white"/>
<path d="M43.6363 21.8408H34.0796V1.36371C34.0796 0.611719 33.4679 0 32.7159 0H12.2841C11.5321 0 10.9204 0.611719 10.9204 1.36371V21.8408H1.36371C0.611719 21.8408 0 22.4525 0 23.2045V43.6363C0 44.3883 0.611719 45 1.36371 45H43.6363C44.3883 45 45 44.3883 45 43.6363V23.2045C45 22.4525 44.3883 21.8408 43.6363 21.8408ZM34.5226 23.1592V28.8862H32.3182V23.1592H34.5226ZM23.6021 1.31836V7.0454H21.3978V1.31836H23.6021ZM10.4774 23.1592H12.6817V28.8862H10.4774V23.1592ZM43.6363 43.6816H23.1592V23.1592H27.4318C27.7959 23.1592 28.091 22.864 28.091 22.5C28.091 22.136 27.7959 21.8408 27.4318 21.8408H17.5682C17.2041 21.8408 16.909 22.136 16.909 22.5C16.909 22.864 17.2041 23.1592 17.5682 23.1592H21.8408V43.6816H1.36371C1.33866 43.6816 1.31836 43.6613 1.31836 43.6363V23.2045C1.31836 23.1795 1.33866 23.1592 1.36371 23.1592H9.15899V29.5454C9.15899 29.9094 9.45413 30.2046 9.81817 30.2046H13.3409C13.705 30.2046 14.0001 29.9094 14.0001 29.5454V23.1592H14.7496C15.1137 23.1592 15.4088 22.864 15.4088 22.5C15.4088 22.136 15.1137 21.8408 14.7496 21.8408H12.2388V1.36371C12.2388 1.33866 12.2591 1.31836 12.2841 1.31836H20.0794V7.70458C20.0794 8.06862 20.3745 8.36376 20.7386 8.36376H24.2613C24.6254 8.36376 24.9205 8.06862 24.9205 7.70458V1.31836H32.7158C32.7408 1.31836 32.7611 1.33866 32.7611 1.36371V21.8408H30.2502C29.8862 21.8408 29.591 22.136 29.591 22.5C29.591 22.864 29.8862 23.1592 30.2502 23.1592H30.9997V29.5454C30.9997 29.9094 31.2949 30.2046 31.6589 30.2046H35.1817C35.5457 30.2046 35.8408 29.9094 35.8408 29.5454V23.1592H43.6361C43.6612 23.1592 43.6815 23.1795 43.6815 23.2045V43.6363H43.6816C43.6816 43.6613 43.6613 43.6816 43.6363 43.6816Z" fill="white"/>
<path d="M29.5452 39.4543H26.0225C25.6584 39.4543 25.3633 39.7495 25.3633 40.1135C25.3633 40.4776 25.6584 40.7727 26.0225 40.7727H29.5452C29.9092 40.7727 30.2044 40.4776 30.2044 40.1135C30.2044 39.7495 29.9092 39.4543 29.5452 39.4543Z" fill="white"/>
<path d="M31.6588 36.6362H26.0225C25.6584 36.6362 25.3633 36.9314 25.3633 37.2954C25.3633 37.6595 25.6584 37.9546 26.0225 37.9546H31.6588C32.0228 37.9546 32.318 37.6595 32.318 37.2954C32.318 36.9314 32.0229 36.6362 31.6588 36.6362Z" fill="white"/>
<path d="M18.6248 17.6135H15.1021C14.738 17.6135 14.4429 17.9087 14.4429 18.2727C14.4429 18.6367 14.738 18.9319 15.1021 18.9319H18.6248C18.9888 18.9319 19.284 18.6367 19.284 18.2727C19.284 17.9087 18.9888 17.6135 18.6248 17.6135Z" fill="white"/>
<path d="M20.7384 14.7954H15.1021C14.738 14.7954 14.4429 15.0905 14.4429 15.4546C14.4429 15.8186 14.738 16.1138 15.1021 16.1138H20.7384C21.1024 16.1138 21.3976 15.8186 21.3976 15.4546C21.3976 15.0905 21.1025 14.7954 20.7384 14.7954Z" fill="white"/>
</svg>
