<svg width="50" height="50" viewBox="0 0 50 50" fill="none" xmlns="http://www.w3.org/2000/svg">
<path d="M22.6562 34.375H3.90625C2.61421 34.375 1.5625 33.3233 1.5625 32.0312V2.34375C1.5625 1.05171 2.61421 0 3.90625 0H33.5938C34.8858 0 35.9375 1.05171 35.9375 2.34375V14.8438C35.9375 15.2748 35.5885 15.625 35.1562 15.625C34.724 15.625 34.375 15.2748 34.375 14.8438V2.34375C34.375 1.91345 34.0248 1.5625 33.5938 1.5625H3.90625C3.47519 1.5625 3.125 1.91345 3.125 2.34375V32.0312C3.125 32.4623 3.47519 32.8125 3.90625 32.8125H22.6562C23.0885 32.8125 23.4375 33.1615 23.4375 33.5938C23.4375 34.026 23.0885 34.375 22.6562 34.375Z" fill="white"/>
<path d="M15.625 8.59375C15.1928 8.59375 14.8438 8.24356 14.8438 7.8125V0.78125C14.8438 0.350189 15.1928 0 15.625 0C16.0572 0 16.4062 0.350189 16.4062 0.78125V7.8125C16.4062 8.24356 16.0572 8.59375 15.625 8.59375Z" fill="white"/>
<path d="M21.875 8.59375C21.4428 8.59375 21.0938 8.24356 21.0938 7.8125V0.78125C21.0938 0.350189 21.4428 0 21.875 0C22.3072 0 22.6562 0.350189 22.6562 0.78125V7.8125C22.6562 8.24356 22.3072 8.59375 21.875 8.59375Z" fill="white"/>
<path d="M15.626 8.59382C15.3391 8.59382 15.0633 8.4359 14.926 8.16162C14.7329 7.77595 14.8893 7.30636 15.275 7.11334L18.4 5.55084C18.7861 5.35782 19.2549 5.51422 19.4487 5.89989C19.6417 6.28593 19.4853 6.75552 19.0992 6.94855L15.9742 8.51105C15.8629 8.56712 15.7431 8.59382 15.626 8.59382Z" fill="white"/>
<path d="M21.8741 8.59366C21.757 8.59366 21.6373 8.56696 21.5259 8.51164L18.4009 6.94915C18.0148 6.75612 17.8584 6.28653 18.0514 5.90087C18.2452 5.51482 18.7133 5.35842 19.1001 5.55144L22.2251 7.11394C22.6108 7.30696 22.7672 7.77655 22.5741 8.1626C22.4368 8.43573 22.161 8.59366 21.8741 8.59366Z" fill="white"/>
<path d="M14.0625 28.125H6.25C5.81779 28.125 5.46875 27.776 5.46875 27.3438C5.46875 26.9115 5.81779 26.5625 6.25 26.5625H14.0625C14.4947 26.5625 14.8438 26.9115 14.8438 27.3438C14.8438 27.776 14.4947 28.125 14.0625 28.125Z" fill="white"/>
<path d="M10.1562 30.4688H6.25C5.81779 30.4688 5.46875 30.1197 5.46875 29.6875C5.46875 29.2553 5.81779 28.9062 6.25 28.9062H10.1562C10.5885 28.9062 10.9375 29.2553 10.9375 29.6875C10.9375 30.1197 10.5885 30.4688 10.1562 30.4688Z" fill="white"/>
<path d="M47.6562 50H22.6562C22.224 50 21.875 49.651 21.875 49.2188V14.8438C21.875 14.4127 22.224 14.0625 22.6562 14.0625H47.6562C48.0885 14.0625 48.4375 14.4127 48.4375 14.8438V49.2188C48.4375 49.651 48.0885 50 47.6562 50ZM23.4375 48.4375H46.875V15.625H23.4375V48.4375Z" fill="white"/>
<path d="M31.2492 18.7499C30.899 18.7499 30.5813 18.5131 30.492 18.1587L29.7107 15.0337C29.6055 14.6148 29.8603 14.1906 30.2795 14.0857C30.6969 13.9797 31.1218 14.236 31.2267 14.6545L32.008 17.7795C32.1133 18.1983 31.8584 18.6225 31.4392 18.7274C31.3759 18.7431 31.3118 18.7499 31.2492 18.7499Z" fill="white"/>
<path d="M39.0625 18.75H31.25C30.8178 18.75 30.4688 18.3998 30.4688 17.9688C30.4688 17.5377 30.8178 17.1875 31.25 17.1875H39.0625C39.4947 17.1875 39.8438 17.5377 39.8438 17.9688C39.8438 18.3998 39.4947 18.75 39.0625 18.75Z" fill="white"/>
<path d="M39.0634 18.7499C39.0009 18.7499 38.9368 18.7431 38.8735 18.7267C38.455 18.6218 38.2002 18.1976 38.3047 17.7787L39.0859 14.6537C39.1909 14.236 39.6135 13.9789 40.0331 14.0849C40.4516 14.1898 40.7064 14.614 40.6019 15.0329L39.8207 18.1579C39.7314 18.513 39.4136 18.7499 39.0634 18.7499Z" fill="white"/>
<path d="M31.0547 17.9688H25C24.5678 17.9688 24.2188 17.6186 24.2188 17.1875C24.2188 16.7564 24.5678 16.4062 25 16.4062H31.0547C31.4869 16.4062 31.8359 16.7564 31.8359 17.1875C31.8359 17.6186 31.4869 17.9688 31.0547 17.9688Z" fill="white"/>
<path d="M45.3125 17.9688H39.2578C38.8256 17.9688 38.4766 17.6186 38.4766 17.1875C38.4766 16.7564 38.8256 16.4062 39.2578 16.4062H45.3125C45.7447 16.4062 46.0938 16.7564 46.0938 17.1875C46.0938 17.6186 45.7447 17.9688 45.3125 17.9688Z" fill="white"/>
<path d="M45.3125 47.6562C44.8803 47.6562 44.5312 47.3072 44.5312 46.875V17.1875C44.5312 16.7564 44.8803 16.4062 45.3125 16.4062C45.7447 16.4062 46.0938 16.7564 46.0938 17.1875V46.875C46.0938 47.3072 45.7447 47.6562 45.3125 47.6562Z" fill="white"/>
<path d="M45.3125 47.6562H25C24.5678 47.6562 24.2188 47.3072 24.2188 46.875C24.2188 46.4428 24.5678 46.0938 25 46.0938H45.3125C45.7447 46.0938 46.0938 46.4428 46.0938 46.875C46.0938 47.3072 45.7447 47.6562 45.3125 47.6562Z" fill="white"/>
<path d="M25 47.6562C24.5678 47.6562 24.2188 47.3072 24.2188 46.875V17.1875C24.2188 16.7564 24.5678 16.4062 25 16.4062C25.4322 16.4062 25.7812 16.7564 25.7812 17.1875V46.875C25.7812 47.3072 25.4322 47.6562 25 47.6562Z" fill="white"/>
<path d="M29.6873 27.3437C29.4874 27.3437 29.2871 27.2671 29.1349 27.1149L28.3537 26.3336C28.0481 26.028 28.0481 25.5344 28.3537 25.2289C28.6592 24.9233 29.1529 24.9233 29.4584 25.2289L30.2397 26.0101C30.5452 26.3157 30.5452 26.8093 30.2397 27.1149C30.0875 27.2671 29.8872 27.3437 29.6873 27.3437Z" fill="white"/>
<path d="M29.6873 27.3437C29.4874 27.3437 29.2871 27.2671 29.1349 27.1149C28.8294 26.8093 28.8294 26.3157 29.1349 26.0101L31.4787 23.6664C31.7842 23.3608 32.2779 23.3608 32.5834 23.6664C32.889 23.9719 32.889 24.4655 32.5834 24.7711L30.2397 27.1149C30.0875 27.2671 29.8872 27.3437 29.6873 27.3437Z" fill="white"/>
<path d="M41.4062 25H35.1562C34.724 25 34.375 24.6498 34.375 24.2188C34.375 23.7877 34.724 23.4375 35.1562 23.4375H41.4062C41.8385 23.4375 42.1875 23.7877 42.1875 24.2188C42.1875 24.6498 41.8385 25 41.4062 25Z" fill="white"/>
<path d="M37.5001 27.3438H35.23C34.7978 27.3438 34.4487 26.9947 34.4487 26.5625C34.4487 26.1303 34.7978 25.7812 35.23 25.7812H37.5001C37.9323 25.7812 38.2814 26.1303 38.2814 26.5625C38.2814 26.9947 37.9323 27.3438 37.5001 27.3438Z" fill="white"/>
<path d="M29.6873 34.375C29.4874 34.375 29.2871 34.2983 29.1349 34.1461L28.3537 33.3648C28.0481 33.0593 28.0481 32.5657 28.3537 32.2601C28.6592 31.9546 29.1529 31.9546 29.4584 32.2601L30.2397 33.0414C30.5452 33.3469 30.5452 33.8405 30.2397 34.1461C30.0875 34.2983 29.8872 34.375 29.6873 34.375Z" fill="white"/>
<path d="M29.6873 34.375C29.4874 34.375 29.2871 34.2983 29.1349 34.1461C28.8294 33.8405 28.8294 33.3469 29.1349 33.0414L31.4787 30.6976C31.7842 30.3921 32.2779 30.3921 32.5834 30.6976C32.889 31.0032 32.889 31.4968 32.5834 31.8023L30.2397 34.1461C30.0875 34.2983 29.8872 34.375 29.6873 34.375Z" fill="white"/>
<path d="M41.4062 32.0312H35.1562C34.724 32.0312 34.375 31.6822 34.375 31.25C34.375 30.8178 34.724 30.4688 35.1562 30.4688H41.4062C41.8385 30.4688 42.1875 30.8178 42.1875 31.25C42.1875 31.6822 41.8385 32.0312 41.4062 32.0312Z" fill="white"/>
<path d="M37.5001 34.375H35.23C34.7978 34.375 34.4487 34.026 34.4487 33.5938C34.4487 33.1615 34.7978 32.8125 35.23 32.8125H37.5001C37.9323 32.8125 38.2814 33.1615 38.2814 33.5938C38.2814 34.026 37.9323 34.375 37.5001 34.375Z" fill="white"/>
<path d="M29.6873 41.4062C29.4874 41.4062 29.2871 41.3296 29.1349 41.1773L28.3537 40.3961C28.0481 40.0905 28.0481 39.5969 28.3537 39.2914C28.6592 38.9858 29.1529 38.9858 29.4584 39.2914L30.2397 40.0726C30.5452 40.3782 30.5452 40.8718 30.2397 41.1773C30.0875 41.3296 29.8872 41.4062 29.6873 41.4062Z" fill="white"/>
<path d="M29.6873 41.4062C29.4874 41.4062 29.2871 41.3296 29.1349 41.1773C28.8294 40.8718 28.8294 40.3782 29.1349 40.0726L31.4787 37.7289C31.7842 37.4233 32.2779 37.4233 32.5834 37.7289C32.889 38.0344 32.889 38.528 32.5834 38.8336L30.2397 41.1773C30.0875 41.3296 29.8872 41.4062 29.6873 41.4062Z" fill="white"/>
<path d="M41.4062 39.0625H35.1562C34.724 39.0625 34.375 38.7135 34.375 38.2812C34.375 37.849 34.724 37.5 35.1562 37.5H41.4062C41.8385 37.5 42.1875 37.849 42.1875 38.2812C42.1875 38.7135 41.8385 39.0625 41.4062 39.0625Z" fill="white"/>
<path d="M37.5001 41.4062H35.23C34.7978 41.4062 34.4487 41.0572 34.4487 40.625C34.4487 40.1928 34.7978 39.8438 35.23 39.8438H37.5001C37.9323 39.8438 38.2814 40.1928 38.2814 40.625C38.2814 41.0572 37.9323 41.4062 37.5001 41.4062Z" fill="white"/>
</svg>
