<svg width="39" height="39" viewBox="0 0 39 39" fill="none" xmlns="http://www.w3.org/2000/svg">
<path d="M36.0627 22.261C35.9769 22.1711 35.8668 22.108 35.7457 22.0796C35.6247 22.0512 35.498 22.0586 35.3811 22.1009L15.9945 29.1196C15.8705 29.1645 15.7634 29.2467 15.6879 29.3548C15.6123 29.4629 15.5719 29.5916 15.5723 29.7235C15.5726 29.8554 15.6137 29.984 15.6898 30.0917C15.766 30.1994 15.8735 30.2809 15.9977 30.3252L20.336 31.8749L21.6013 38.2062C21.608 38.228 21.6159 38.2493 21.625 38.2703C21.6339 38.2999 21.645 38.3288 21.6583 38.3568C21.6812 38.403 21.7101 38.4461 21.7441 38.4849C21.7535 38.5012 21.7638 38.517 21.7749 38.5323C21.78 38.5374 21.7877 38.5393 21.7934 38.5445C21.8492 38.5985 21.9143 38.6419 21.9856 38.6726L21.9952 38.6764C22.0601 38.703 22.129 38.7185 22.199 38.7226H22.2329C22.3088 38.7217 22.3839 38.7071 22.4546 38.6796C22.4757 38.6719 22.4936 38.6585 22.5148 38.6489C22.5641 38.6245 22.6102 38.5939 22.6519 38.5579C22.6615 38.5489 22.6743 38.5464 22.6839 38.5368L26.9389 34.3131L30.4054 35.3535C30.5572 35.3989 30.7204 35.3865 30.8636 35.3186C31.0068 35.2507 31.1197 35.1321 31.1805 34.9858L36.194 22.9536C36.2423 22.8379 36.2555 22.7107 36.2322 22.5876C36.2088 22.4645 36.1499 22.351 36.0627 22.261V22.261ZM23.4847 32.2433C23.4706 32.2548 23.4648 32.2715 23.452 32.2843C23.4231 32.3146 23.3971 32.3476 23.3745 32.3829C23.3493 32.4184 23.3278 32.4564 23.3104 32.4963C23.304 32.5117 23.2919 32.5232 23.2867 32.5392L22.3636 35.4938L21.6083 31.7141L29.4303 27.1657L23.4847 32.2433ZM29.75 25.502L20.8261 30.691L18.106 29.7179L29.75 25.502ZM23.6109 35.8045L24.3226 33.5258L25.5398 33.891L23.6109 35.8045ZM30.217 33.9563L25.2112 32.4547L33.9467 25.0042L30.217 33.9563Z" fill="url(#paint0_linear)"/>
<path d="M36.7969 0.28125H2.20312C1.69341 0.28125 1.20458 0.483733 0.844154 0.844154C0.483733 1.20458 0.28125 1.69341 0.28125 2.20312V31.6719C0.28125 32.1816 0.483733 32.6704 0.844154 33.0308C1.20458 33.3913 1.69341 33.5938 2.20312 33.5938H7.32812C7.49803 33.5938 7.66097 33.5263 7.78112 33.4061C7.90126 33.286 7.96875 33.123 7.96875 32.9531C7.96875 32.7832 7.90126 32.6203 7.78112 32.5001C7.66097 32.38 7.49803 32.3125 7.32812 32.3125H2.20312C2.03322 32.3125 1.87028 32.245 1.75013 32.1249C1.62999 32.0047 1.5625 31.8418 1.5625 31.6719V7.96875H37.4375V31.6719C37.4375 31.8418 37.37 32.0047 37.2499 32.1249C37.1297 32.245 36.9668 32.3125 36.7969 32.3125H33.5938C33.4238 32.3125 33.2609 32.38 33.1408 32.5001C33.0206 32.6203 32.9531 32.7832 32.9531 32.9531C32.9531 33.123 33.0206 33.286 33.1408 33.4061C33.2609 33.5263 33.4238 33.5938 33.5938 33.5938H36.7969C37.3066 33.5938 37.7954 33.3913 38.1558 33.0308C38.5163 32.6704 38.7188 32.1816 38.7188 31.6719V2.20312C38.7187 1.69341 38.5163 1.20458 38.1558 0.844154C37.7954 0.483733 37.3066 0.28125 36.7969 0.28125V0.28125ZM1.5625 6.6875V2.20312C1.5625 2.03322 1.62999 1.87028 1.75013 1.75013C1.87028 1.62999 2.03322 1.5625 2.20312 1.5625H36.7969C36.9668 1.5625 37.1297 1.62999 37.2499 1.75013C37.37 1.87028 37.4375 2.03322 37.4375 2.20312V6.6875H1.5625Z" fill="url(#paint1_linear)"/>
<path d="M34.2344 2.20312H16.2969C15.7872 2.20312 15.2983 2.40561 14.9379 2.76603C14.5775 3.12645 14.375 3.61529 14.375 4.125C14.375 4.63471 14.5775 5.12355 14.9379 5.48397C15.2983 5.84439 15.7872 6.04687 16.2969 6.04688H34.2344C34.7441 6.04688 35.2329 5.84439 35.5933 5.48397C35.9538 5.12355 36.1562 4.63471 36.1562 4.125C36.1562 3.61529 35.9538 3.12645 35.5933 2.76603C35.2329 2.40561 34.7441 2.20312 34.2344 2.20312ZM34.2344 4.76562H16.2969C16.127 4.76562 15.964 4.69813 15.8439 4.57799C15.7237 4.45785 15.6562 4.2949 15.6562 4.125C15.6562 3.9551 15.7237 3.79215 15.8439 3.67201C15.964 3.55187 16.127 3.48437 16.2969 3.48438H34.2344C34.4043 3.48438 34.5672 3.55187 34.6874 3.67201C34.8075 3.79215 34.875 3.9551 34.875 4.125C34.875 4.2949 34.8075 4.45785 34.6874 4.57799C34.5672 4.69813 34.4043 4.76562 34.2344 4.76562Z" fill="url(#paint2_linear)"/>
<path d="M4.125 5.40625C4.83261 5.40625 5.40625 4.83261 5.40625 4.125C5.40625 3.41739 4.83261 2.84375 4.125 2.84375C3.41739 2.84375 2.84375 3.41739 2.84375 4.125C2.84375 4.83261 3.41739 5.40625 4.125 5.40625Z" fill="url(#paint3_linear)"/>
<path d="M7.96875 5.40625C8.67636 5.40625 9.25 4.83261 9.25 4.125C9.25 3.41739 8.67636 2.84375 7.96875 2.84375C7.26114 2.84375 6.6875 3.41739 6.6875 4.125C6.6875 4.83261 7.26114 5.40625 7.96875 5.40625Z" fill="url(#paint4_linear)"/>
<path d="M11.8125 5.40625C12.5201 5.40625 13.0938 4.83261 13.0938 4.125C13.0938 3.41739 12.5201 2.84375 11.8125 2.84375C11.1049 2.84375 10.5312 3.41739 10.5312 4.125C10.5312 4.83261 11.1049 5.40625 11.8125 5.40625Z" fill="url(#paint5_linear)"/>
<path d="M16.9375 18.8594V9.89062C16.9375 9.72072 16.87 9.55777 16.7499 9.43763C16.6297 9.31749 16.4668 9.25 16.2969 9.25H3.48438C3.31447 9.25 3.15153 9.31749 3.03138 9.43763C2.91124 9.55777 2.84375 9.72072 2.84375 9.89062V18.8594C2.84375 19.0293 2.91124 19.1922 3.03138 19.3124C3.15153 19.4325 3.31447 19.5 3.48438 19.5H16.2969C16.4668 19.5 16.6297 19.4325 16.7499 19.3124C16.87 19.1922 16.9375 19.0293 16.9375 18.8594ZM9.89062 14.7946L5.15384 10.5312H14.6274L9.89062 14.7946ZM7.51006 14.375L4.125 17.4212V11.3288L7.51006 14.375ZM8.4678 15.2366L9.03347 15.7459C9.26828 15.9586 9.5738 16.0764 9.89062 16.0764C10.2075 16.0764 10.513 15.9586 10.7478 15.7459L11.3135 15.2366L14.6274 18.2188H5.15384L8.4678 15.2366ZM12.2712 14.375L15.6562 11.3288V17.4212L12.2712 14.375Z" fill="url(#paint6_linear)"/>
<path d="M23.9844 11.1719H18.8594C18.6895 11.1719 18.5265 11.2394 18.4064 11.3595C18.2862 11.4796 18.2188 11.6426 18.2188 11.8125C18.2188 11.9824 18.2862 12.1454 18.4064 12.2655C18.5265 12.3856 18.6895 12.4531 18.8594 12.4531H23.9844C25.1737 12.4531 26.3143 12.9256 27.1553 13.7666C27.9963 14.6076 28.4688 15.7482 28.4688 16.9375C28.4688 18.1268 27.9963 19.2674 27.1553 20.1084C26.3143 20.9494 25.1737 21.4219 23.9844 21.4219H12.7734C11.1593 21.4219 9.61136 22.0631 8.47003 23.2044C7.3287 24.3457 6.6875 25.8937 6.6875 27.5078C6.6875 29.1219 7.3287 30.6699 8.47003 31.8112C9.61136 32.9526 11.1593 33.5938 12.7734 33.5938H18.2188C18.3887 33.5938 18.5516 33.5263 18.6717 33.4061C18.7919 33.286 18.8594 33.123 18.8594 32.9531C18.8594 32.7832 18.7919 32.6203 18.6717 32.5001C18.5516 32.38 18.3887 32.3125 18.2188 32.3125H12.7734C11.4992 32.3125 10.2771 31.8063 9.37601 30.9052C8.47496 30.0042 7.96875 28.7821 7.96875 27.5078C7.96875 26.2335 8.47496 25.0114 9.37601 24.1104C10.2771 23.2093 11.4992 22.7031 12.7734 22.7031H23.9844C25.5135 22.7031 26.98 22.0957 28.0613 21.0144C29.1426 19.9331 29.75 18.4666 29.75 16.9375C29.75 15.4084 29.1426 13.9419 28.0613 12.8606C26.98 11.7793 25.5135 11.1719 23.9844 11.1719V11.1719Z" fill="url(#paint7_linear)"/>
<defs>
<linearGradient id="paint0_linear" x1="25.9078" y1="22.0626" x2="25.9078" y2="38.7226" gradientUnits="userSpaceOnUse">
<stop stop-color="#FCA980"/>
<stop offset="1" stop-color="#D269A4"/>
</linearGradient>
<linearGradient id="paint1_linear" x1="19.5" y1="0.28125" x2="19.5" y2="33.5938" gradientUnits="userSpaceOnUse">
<stop stop-color="#FCA980"/>
<stop offset="1" stop-color="#D269A4"/>
</linearGradient>
<linearGradient id="paint2_linear" x1="25.2656" y1="2.20312" x2="25.2656" y2="6.04688" gradientUnits="userSpaceOnUse">
<stop stop-color="#FCA980"/>
<stop offset="1" stop-color="#D269A4"/>
</linearGradient>
<linearGradient id="paint3_linear" x1="4.125" y1="2.84375" x2="4.125" y2="5.40625" gradientUnits="userSpaceOnUse">
<stop stop-color="#FCA980"/>
<stop offset="1" stop-color="#D269A4"/>
</linearGradient>
<linearGradient id="paint4_linear" x1="7.96875" y1="2.84375" x2="7.96875" y2="5.40625" gradientUnits="userSpaceOnUse">
<stop stop-color="#FCA980"/>
<stop offset="1" stop-color="#D269A4"/>
</linearGradient>
<linearGradient id="paint5_linear" x1="11.8125" y1="2.84375" x2="11.8125" y2="5.40625" gradientUnits="userSpaceOnUse">
<stop stop-color="#FCA980"/>
<stop offset="1" stop-color="#D269A4"/>
</linearGradient>
<linearGradient id="paint6_linear" x1="9.89062" y1="9.25" x2="9.89062" y2="19.5" gradientUnits="userSpaceOnUse">
<stop stop-color="#FCA980"/>
<stop offset="1" stop-color="#D269A4"/>
</linearGradient>
<linearGradient id="paint7_linear" x1="18.2188" y1="11.1719" x2="18.2188" y2="33.5938" gradientUnits="userSpaceOnUse">
<stop stop-color="#FCA980"/>
<stop offset="1" stop-color="#D269A4"/>
</linearGradient>
</defs>
</svg>
