<svg width="45" height="45" viewBox="0 0 45 45" fill="none" xmlns="http://www.w3.org/2000/svg">
<path d="M35.7243 7.92255C32.9687 5.42145 29.6002 3.76717 25.9595 3.12188C25.7809 1.37074 24.2977 0 22.5003 0C20.5828 0 19.0229 1.55997 19.0229 3.4773C19.0229 5.39481 20.5828 6.9547 22.5003 6.9547C24.0836 6.9547 25.4222 5.89061 25.8409 4.44032C29.1938 5.05608 32.2955 6.59074 34.8382 8.89866C34.9645 9.01327 35.1229 9.06979 35.281 9.06979C35.4604 9.06979 35.6392 8.99692 35.7694 8.85366C36.0141 8.5841 35.9938 8.16724 35.7243 7.92255ZM22.5003 5.63634C21.3098 5.63634 20.3413 4.66778 20.3413 3.47739C20.3413 2.287 21.3098 1.31836 22.5003 1.31836C23.6907 1.31836 24.6592 2.28691 24.6592 3.4773C24.6592 4.6677 23.6907 5.63634 22.5003 5.63634Z" fill="white"/>
<path d="M22.4999 38.0453C20.9165 38.0453 19.5778 39.1095 19.1592 40.5599C15.8074 39.9443 12.7045 38.4086 10.1637 36.1029C9.89414 35.8583 9.47719 35.8784 9.23259 36.1481C8.9879 36.4177 9.00812 36.8346 9.27777 37.0792C12.0313 39.5779 15.4013 41.2331 19.0407 41.8784C19.2193 43.6293 20.7026 45 22.4999 45C24.4174 45 25.9772 43.44 25.9772 41.5227C25.9772 39.6052 24.4174 38.0453 22.4999 38.0453ZM22.4999 43.6816C21.3095 43.6816 20.341 42.7131 20.341 41.5227C20.341 40.3323 21.3096 39.3637 22.4999 39.3637C23.6903 39.3637 24.6589 40.3323 24.6589 41.5227C24.6589 42.7131 23.6904 43.6816 22.4999 43.6816Z" fill="white"/>
<path d="M17.4931 4.13126C17.3854 3.78365 17.0166 3.58888 16.6684 3.69673C13.0681 4.81206 9.88786 6.92477 7.44995 9.81611C6.72125 9.4874 5.90835 9.42016 5.12586 9.62987C4.22867 9.87025 3.47888 10.4457 3.01446 11.25C2.05584 12.9106 2.62678 15.0415 4.28729 16.0002C4.83362 16.3156 5.43049 16.4655 6.02015 16.4654C7.22275 16.4653 8.39416 15.8416 9.03743 14.7274C9.50184 13.9231 9.62524 12.986 9.38477 12.0888C9.23026 11.512 8.93653 10.9965 8.53311 10.5781C10.7982 7.92506 13.7369 5.98513 17.0586 4.95602C17.4063 4.84827 17.6009 4.47904 17.4931 4.13126ZM7.89564 14.0683C7.30045 15.0991 5.97743 15.4539 4.94639 14.8585C3.91552 14.2632 3.56105 12.9402 4.15625 11.9092C4.44462 11.4097 4.91017 11.0526 5.46723 10.9033C5.6532 10.8535 5.84199 10.8288 6.02946 10.8288C6.40352 10.8288 6.77275 10.9269 7.10542 11.119C7.6049 11.4074 7.96209 11.8729 8.11133 12.43C8.26057 12.987 8.18392 13.5688 7.89564 14.0683Z" fill="white"/>
<path d="M40.713 28.9999C39.0526 28.0412 36.9216 28.612 35.9629 30.2726C35.4984 31.077 35.375 32.0141 35.6155 32.9113C35.77 33.4881 36.0638 34.0036 36.4672 34.422C34.2021 37.075 31.264 39.0148 27.9418 40.0441C27.5941 40.1518 27.3995 40.521 27.5072 40.8687C27.5949 41.1515 27.8554 41.3331 28.1367 41.3331C28.2012 41.3331 28.267 41.3235 28.332 41.3034C31.9334 40.1876 35.1136 38.0749 37.5517 35.1826C38.0012 35.3853 38.4821 35.4902 38.9688 35.4902C39.2709 35.4902 39.5749 35.4504 39.8745 35.3702C40.7717 35.1298 41.5215 34.5544 41.9859 33.75C42.9445 32.0895 42.3735 29.9586 40.713 28.9999ZM40.844 33.0909C40.5557 33.5903 40.0901 33.9475 39.5331 34.0968C38.9762 34.246 38.3943 34.1694 37.8948 33.8811C37.3953 33.5927 37.0381 33.1272 36.8889 32.5701C36.7396 32.013 36.8163 31.4313 37.1046 30.9318C37.504 30.2399 38.2311 29.8528 38.9779 29.8528C39.3439 29.8528 39.7146 29.9459 40.0537 30.1416C41.0848 30.7369 41.4392 32.0599 40.844 33.0909Z" fill="white"/>
<path d="M41.9854 11.25C41.521 10.4457 40.7712 9.87025 39.874 9.62987C38.9766 9.38949 38.0396 9.5128 37.2353 9.9773C36.4309 10.4417 35.8555 11.1915 35.6151 12.0887C35.3747 12.9858 35.4981 13.9229 35.9625 14.7273C36.6058 15.8416 37.7771 16.4653 38.9798 16.4652C39.2575 16.4652 39.5367 16.4307 39.8117 16.3626C40.509 18.3281 40.8633 20.3895 40.8633 22.5C40.8633 23.8772 40.7103 25.2504 40.4083 26.5813C40.3278 26.9363 40.5503 27.2894 40.9053 27.37C40.9544 27.3811 41.0034 27.3865 41.0517 27.3865C41.3527 27.3865 41.6246 27.1789 41.694 26.873C42.0176 25.4466 42.1816 23.9753 42.1816 22.5001C42.1816 20.1971 41.7883 17.9478 41.013 15.8056C42.4389 14.7751 42.8837 12.8061 41.9854 11.25ZM40.0534 14.8584C39.0223 15.4537 37.6995 15.099 37.1041 14.0682C36.8159 13.5687 36.7393 12.9869 36.8885 12.4299C37.0377 11.8728 37.395 11.4073 37.8944 11.1189C38.2271 10.9268 38.5962 10.8287 38.9704 10.8287C39.1579 10.8287 39.3466 10.8534 39.5326 10.9032C40.0897 11.0525 40.5552 11.4097 40.8436 11.9091C41.4388 12.9401 41.0843 14.2631 40.0534 14.8584Z" fill="white"/>
<path d="M9.03743 30.2726C8.24544 28.9008 6.65339 28.2737 5.18764 28.6373C4.4904 26.6711 4.13656 24.6084 4.13656 22.4999C4.13656 21.1224 4.28966 19.7492 4.59165 18.4185C4.67216 18.0634 4.44971 17.7103 4.09463 17.6298C3.73964 17.5492 3.3865 17.7717 3.3059 18.1268C2.98229 19.5531 2.8182 21.0244 2.8182 22.4999C2.8182 24.8007 3.21221 27.0512 3.98732 29.194C2.56103 30.2245 2.11604 32.1938 3.01455 33.7499C3.47896 34.5543 4.22875 35.1297 5.12594 35.3701C5.42556 35.4505 5.72957 35.4901 6.03165 35.4901C6.63414 35.4901 7.2289 35.3321 7.76468 35.0227C8.56906 34.5583 9.14448 33.8085 9.38486 32.9113C9.62524 32.0141 9.50184 31.077 9.03743 30.2726ZM8.11141 32.57C7.96217 33.1271 7.6049 33.5926 7.1055 33.881C6.60611 34.1694 6.02427 34.2459 5.46722 34.0967C4.91017 33.9474 4.44461 33.5902 4.15624 33.0908C3.56105 32.0598 3.91551 30.7368 4.94647 30.1415C5.9776 29.5463 7.30044 29.9009 7.89573 30.9317C8.18401 31.4312 8.26065 32.013 8.11141 32.57Z" fill="white"/>
<path d="M30.1022 29.749L28.877 15.6582C28.7993 14.7647 28.0644 14.0909 27.1675 14.0909H25.2728V13.341C25.2728 11.8121 24.029 10.5682 22.5 10.5682C20.9709 10.5682 19.7271 11.8121 19.7271 13.341V14.0909H17.8325C16.9354 14.0908 16.2005 14.7647 16.1228 15.6582L14.8975 29.749C14.8559 30.227 15.0181 30.7038 15.3423 31.0574C15.6665 31.4109 16.1275 31.6136 16.6072 31.6136H28.3926C28.8722 31.6136 29.3333 31.4109 29.6574 31.0574C29.9816 30.7038 30.1437 30.227 30.1022 29.749ZM22.4998 11.8865C23.3018 11.8865 23.9543 12.5389 23.9543 13.3409V14.0908H21.0453V13.3409C21.0453 12.5389 21.6978 11.8865 22.4998 11.8865ZM28.6857 30.1664C28.6415 30.2146 28.5447 30.2954 28.3926 30.2954H16.6071C16.4549 30.2954 16.3582 30.2146 16.314 30.1664C16.2698 30.1183 16.1978 30.0148 16.2109 29.8633L17.4362 15.7724C17.4543 15.5653 17.6245 15.4092 17.8324 15.4092H19.727V16.159C19.727 16.5232 20.0221 16.8182 20.3862 16.8182C20.7503 16.8182 21.0454 16.5232 21.0454 16.159V15.4092H23.9544V16.159C23.9544 16.5232 24.2494 16.8182 24.6136 16.8182C24.9777 16.8182 25.2727 16.5232 25.2727 16.159V15.4092H27.1674C27.3752 15.4092 27.5455 15.5653 27.5635 15.7724L28.7888 29.8632C28.8019 30.0148 28.7298 30.1183 28.6857 30.1664Z" fill="white"/>
</svg>
