<svg width="50" height="50" viewBox="0 0 50 50" fill="none" xmlns="http://www.w3.org/2000/svg">
<path d="M45.9677 37.0968V35.4839H48.3871V29.0323H50V24.1935H46.7742V17.9097C46.7742 16.0058 45.4767 14.3862 43.6169 13.9735L39.5161 13.0631V11.8837C40.9766 10.8623 41.9355 9.17102 41.9355 7.25806V5.64516C41.9355 2.53237 39.4023 0 36.2903 0H0V27.4194H22.5806V29.0323H24.1935V30.7176C21.9089 31.1031 20.1613 33.0905 20.1613 35.4839V37.0968C20.1613 38.525 20.787 39.8063 21.7742 40.6935V42.1339L18.4685 43.0782C17.8573 43.2523 17.3356 43.6075 16.9355 44.0662C16.5354 43.6075 16.0137 43.2523 15.4025 43.0782L12.0968 42.1339V40.6935C13.084 39.8071 13.7097 38.5258 13.7097 37.0968V35.4839C13.7097 32.8153 11.5396 30.6452 8.87097 30.6452C6.20235 30.6452 4.03226 32.8153 4.03226 35.4839V37.0968C4.03226 38.525 4.65797 39.8063 5.64516 40.6935V42.1339L2.33942 43.0782C0.961993 43.4708 0 44.7466 0 46.18V50H50V46.18C50 44.7466 49.038 43.4716 47.6606 43.0782L44.3548 42.1339V40.6935C45.342 39.8063 45.9677 38.525 45.9677 37.0968ZM44.3548 37.0968C44.3548 38.8759 42.9081 40.3226 41.129 40.3226C39.35 40.3226 37.9032 38.8759 37.9032 37.0968V35.4839C37.9032 33.7048 39.35 32.2581 41.129 32.2581C42.9081 32.2581 44.3548 33.7048 44.3548 35.4839V37.0968ZM33.0645 44.0662C32.6644 43.6075 32.1427 43.2523 31.5315 43.0782L28.2258 42.1339V40.6935C29.213 39.8071 29.8387 38.5258 29.8387 37.0968V35.4839H36.2903V37.0968C36.2903 38.525 36.916 39.8063 37.9032 40.6935V42.1339L34.5975 43.0782C33.9863 43.2523 33.4646 43.6075 33.0645 44.0662ZM48.3871 27.4194H24.1935V25.8065H48.3871V27.4194ZM43.2668 15.5482C44.3824 15.7959 45.1613 16.7677 45.1613 17.9097V24.1935H27.4194V17.9097C27.4194 16.7669 28.1982 15.7959 29.3138 15.5474L33.5016 14.6169C33.9627 15.2281 34.8798 16.129 36.2903 16.129C37.7008 16.129 38.6179 15.2281 39.079 14.6177L43.2668 15.5482ZM37.9032 13.4872C37.7032 13.7959 37.1476 14.5161 36.2903 14.5161C35.4331 14.5161 34.8775 13.7959 34.6774 13.4872V12.6654C35.1885 12.8186 35.73 12.9032 36.2903 12.9032C36.8507 12.9032 37.3921 12.8186 37.9032 12.6654V13.4872ZM40.3226 5.64516V7.25806C40.3226 9.48132 38.5136 11.2903 36.2903 11.2903C34.0671 11.2903 32.2581 9.48132 32.2581 7.25806V5.64516C32.2581 3.42191 34.0671 1.6129 36.2903 1.6129C38.5136 1.6129 40.3226 3.42191 40.3226 5.64516ZM1.6129 25.8065V1.6129H32.3475C31.2984 2.63869 30.6452 4.06612 30.6452 5.64516V7.25806C30.6452 9.17102 31.604 10.8631 33.0645 11.8837V13.0631L28.9637 13.9743C27.1039 14.387 25.8065 16.0058 25.8065 17.9097V24.1935H22.5806V25.8065H1.6129ZM46.7742 29.0323V33.871H45.6854C45.0195 31.9942 43.2314 30.6452 41.129 30.6452C39.0267 30.6452 37.2385 31.9942 36.5727 33.871H29.5564C28.9775 32.2403 27.5509 31.0129 25.8065 30.7176V29.0323H46.7742ZM21.7742 35.4839C21.7742 33.7048 23.2209 32.2581 25 32.2581C26.7791 32.2581 28.2258 33.7048 28.2258 35.4839V37.0968C28.2258 38.8759 26.7791 40.3226 25 40.3226C23.2209 40.3226 21.7742 38.8759 21.7742 37.0968V35.4839ZM25 41.9355C25.5662 41.9355 26.1073 41.8323 26.6129 41.6531V42.5195C26.4129 42.8282 25.8572 43.5484 25 43.5484C24.1428 43.5484 23.5871 42.8282 23.3871 42.5195V41.6531C23.8927 41.8323 24.4338 41.9355 25 41.9355ZM18.9114 44.6289L22.2337 43.6799C22.7023 44.2895 23.6119 45.1613 25 45.1613C26.3881 45.1613 27.2977 44.2895 27.7655 43.6799L31.0878 44.6289C31.7765 44.8258 32.2573 45.4637 32.2573 46.18V48.3871H17.7419V46.18C17.7419 45.4637 18.2235 44.8258 18.9114 44.6289ZM5.64516 35.4839C5.64516 33.7048 7.09189 32.2581 8.87097 32.2581C10.65 32.2581 12.0968 33.7048 12.0968 35.4839V37.0968C12.0968 38.8759 10.65 40.3226 8.87097 40.3226C7.09189 40.3226 5.64516 38.8759 5.64516 37.0968V35.4839ZM8.87097 41.9355C9.43722 41.9355 9.97826 41.8323 10.4839 41.6531V42.5195C10.2838 42.8282 9.72822 43.5484 8.87097 43.5484C8.01372 43.5484 7.4581 42.8282 7.25806 42.5195V41.6531C7.76367 41.8323 8.30472 41.9355 8.87097 41.9355ZM1.6129 46.18C1.6129 45.4637 2.09449 44.8258 2.78242 44.6289L6.1047 43.6799C6.57329 44.2895 7.48291 45.1613 8.87097 45.1613C10.259 45.1613 11.1686 44.2895 11.6365 43.6799L14.9587 44.6289C15.6474 44.8258 16.1282 45.4637 16.1282 46.18V48.3871H1.6129V46.18ZM47.2176 44.6289C47.9063 44.8258 48.3871 45.4637 48.3871 46.18V48.3871H33.871V46.18C33.871 45.4637 34.3526 44.8258 35.0405 44.6289L38.3628 43.6799C38.8314 44.2895 39.741 45.1613 41.129 45.1613C42.5171 45.1613 43.4267 44.2895 43.8945 43.6799L47.2176 44.6289ZM42.7419 42.5195C42.5419 42.8282 41.9863 43.5484 41.129 43.5484C40.2718 43.5484 39.7162 42.8282 39.5161 42.5195V41.6531C40.0217 41.8331 40.5628 41.9355 41.129 41.9355C41.6953 41.9355 42.2363 41.8323 42.7419 41.6531V42.5195Z" fill="white"/>
<path d="M3.22559 3.22583H4.83849V4.83873H3.22559V3.22583Z" fill="white"/>
<path d="M6.45166 3.22583H12.9033V4.83873H6.45166V3.22583Z" fill="white"/>
<path d="M3.22559 6.45166H4.83849V8.06456H3.22559V6.45166Z" fill="white"/>
<path d="M6.45166 6.45166H12.9033V8.06456H6.45166V6.45166Z" fill="white"/>
<path d="M19.3546 9.24268L16.1209 10.68C12.8014 12.1558 9.27634 12.9032 5.64494 12.9032H4.83849V22.5806H3.22559V24.1935H20.9675V22.5806H19.3546V9.24268ZM17.7417 11.725V22.5806H16.1288V12.4232C16.345 12.3338 16.562 12.2491 16.7766 12.1539L17.7417 11.725ZM12.903 13.538C13.4448 13.3887 13.9819 13.2202 14.5159 13.0371V22.5806H12.903V13.538ZM11.2901 22.5806H9.6772V14.2129C10.2182 14.133 10.7554 14.0369 11.2901 13.9251V22.5806ZM6.45139 14.5047C6.99165 14.4893 7.52876 14.4523 8.0643 14.4055V22.5806H6.45139V14.5047Z" fill="white"/>
</svg>
